<?xml version="1.0" encoding="utf-8"?>
<!-- Generator: Adobe Illustrator 27.5.0, SVG Export Plug-In . SVG Version: 6.00 Build 0)  -->
<svg version="1.1" id="Layer_1" xmlns="http://www.w3.org/2000/svg" xmlns:xlink="http://www.w3.org/1999/xlink" x="0px" y="0px"
	 viewBox="0 0 1200 1200" style="enable-background:new 0 0 1200 1200;" xml:space="preserve">
<g>
	<g>
		<g>
			<path style="fill:#E5E5E4;" d="M183.051,705.494h-13.116c-1.62,0-2.933-1.313-2.933-2.933v-40.653
				c-0.07-0.062-0.194-0.156-0.4-0.272c-0.806-0.456-1.892-0.688-3.224-0.688c-1.335,0-2.42,0.231-3.226,0.688
				c-0.206,0.116-0.329,0.21-0.4,0.271v40.653c0,1.62-1.313,2.933-2.933,2.933h-13.115c-1.62,0-2.933-1.313-2.933-2.933v-40.849
				c0-4.192,2.45-7.697,7.284-10.421c4.286-2.415,9.441-3.64,15.323-3.64c5.88,0,11.035,1.224,15.322,3.64
				c4.834,2.724,7.284,6.23,7.284,10.421v40.849C185.984,704.181,184.67,705.494,183.051,705.494z M172.867,699.628h7.25v-37.916
				c0-0.714,0-2.888-4.297-5.31c-3.398-1.914-7.584-2.884-12.443-2.884c-4.86,0-9.047,0.97-12.443,2.884
				c-4.297,2.421-4.297,4.595-4.297,5.31v37.916h7.249v-37.916c0-1.222,0.438-3.518,3.375-5.181
				c1.698-0.962,3.756-1.449,6.117-1.449c2.357,0,4.414,0.488,6.114,1.449c2.937,1.664,3.376,3.961,3.376,5.181V699.628z"/>
		</g>
		<g>
			<path style="fill:#E5E5E4;" d="M240.975,705.494H227.86c-1.62,0-2.933-1.313-2.933-2.933v-13.666l-7.563,14.987
				c-0.499,0.989-1.512,1.612-2.619,1.612H201.63c-1.62,0-2.933-1.313-2.933-2.933v-51.976c0-1.62,1.313-2.933,2.933-2.933h13.115
				c1.62,0,2.933,1.313,2.933,2.933v13.666l7.563-14.987c0.499-0.989,1.512-1.612,2.619-1.612h13.115
				c1.62,0,2.933,1.313,2.933,2.933v51.976C243.908,704.181,242.595,705.494,240.975,705.494z M230.793,699.628h7.249v-46.11h-8.377
				l-12.302,24.376c-0.611,1.214-1.977,1.845-3.298,1.532c-1.322-0.315-2.254-1.495-2.254-2.854v-23.055h-7.249v46.11h8.377
				l12.302-24.376c0.612-1.213,1.981-1.845,3.298-1.532c1.322,0.315,2.254,1.495,2.254,2.854V699.628z"/>
		</g>
		<g>
			<path style="fill:#E5E5E4;" d="M285.721,705.494h-26.229c-1.62,0-2.933-1.313-2.933-2.933v-51.976
				c0-1.62,1.313-2.933,2.933-2.933h26.229c4.079,0,7.656,0.854,10.628,2.538c4.375,2.478,5.293,5.584,5.293,7.753v37.188
				c0,2.201-0.918,5.346-5.292,7.825C293.373,704.641,289.797,705.494,285.721,705.494z M262.424,699.628h23.296
				c3.052,0,5.655-0.598,7.737-1.777c2.317-1.313,2.317-2.372,2.317-2.72v-37.188c0-0.886-0.78-1.777-2.318-2.649
				c-2.079-1.179-4.682-1.776-7.737-1.776h-23.296V699.628z M280.732,698.137h-8.254c-1.62,0-2.933-1.313-2.933-2.933v-37.26
				c0-1.62,1.313-2.933,2.933-2.933h8.254c1.913,0,3.594,0.403,4.996,1.197c2.546,1.443,2.926,3.479,2.926,4.564v31.606
				c0,1.085-0.38,3.121-2.925,4.563C284.326,697.734,282.645,698.137,280.732,698.137z M275.411,692.271h5.321
				c0.859,0,1.55-0.138,2.056-0.408v-30.579c-0.505-0.27-1.196-0.407-2.056-0.407h-5.321V692.271z"/>
		</g>
		<g>
			<path style="fill:#E5E5E4;" d="M357.081,705.494h-39.346c-1.62,0-2.933-1.313-2.933-2.933v-51.976
				c0-1.62,1.313-2.933,2.933-2.933h39.346c1.62,0,2.933,1.313,2.933,2.933v7.43c0,1.62-1.313,2.933-2.933,2.933h-23.298v8.958
				h16.708c1.62,0,2.933,1.313,2.933,2.933v7.431c0,1.62-1.313,2.933-2.933,2.933h-16.708v8.995h23.298
				c1.62,0,2.933,1.313,2.933,2.933v7.43C360.014,704.181,358.701,705.494,357.081,705.494z M320.668,699.628h33.48v-1.564H330.85
				c-1.62,0-2.933-1.313-2.933-2.933V680.27c0-1.62,1.313-2.933,2.933-2.933h16.708v-1.565H330.85c-1.62,0-2.933-1.313-2.933-2.933
				v-14.824c0-1.62,1.313-2.933,2.933-2.933h23.298v-1.564h-33.48V699.628z"/>
		</g>
		<g>
			<path style="fill:#E5E5E4;" d="M372.206,705.422c-0.776,0-1.521-0.308-2.071-0.856c-0.552-0.55-0.862-1.298-0.862-2.077v-51.904
				c0-1.62,1.313-2.933,2.933-2.933h12.987c1.62,0,2.933,1.313,2.933,2.933v19.321h1.588l5.906-20.146
				c0.367-1.25,1.513-2.108,2.815-2.108h12.988c0.917,0,1.781,0.429,2.335,1.159c0.555,0.73,0.736,1.677,0.491,2.56l-5.76,20.714
				c4.777,2.342,5.868,5.614,5.868,8.112v14.861c0,2.169-0.918,5.275-5.292,7.753c-2.975,1.684-6.551,2.538-10.629,2.538
				l-26.221,0.073C372.212,705.422,372.209,705.422,372.206,705.422z M375.139,653.518v46.03l23.288-0.065
				c3.06,0,5.663-0.597,7.745-1.776c1.537-0.871,2.317-1.762,2.317-2.649v-14.861c0-1.408-1.497-2.617-4.449-3.595
				c-1.486-0.491-2.324-2.062-1.904-3.57l5.426-19.515h-6.932l-5.906,20.146c-0.367,1.25-1.513,2.108-2.815,2.108h-6.717
				c-1.62,0-2.933-1.313-2.933-2.933v-19.321H375.139z M393.447,698.064h-8.254c-1.62,0-2.933-1.313-2.933-2.933v-15.006
				c0-1.62,1.313-2.933,2.933-2.933h8.254c1.935,0,3.633,0.425,5.046,1.262c2.503,1.48,2.876,3.454,2.876,4.498v9.279
				c0,1.071-0.374,3.089-2.877,4.572C397.074,697.64,395.378,698.064,393.447,698.064z M388.126,692.198h5.32
				c0.866,0,1.557-0.149,2.056-0.443v-8.255c-0.497-0.294-1.189-0.443-2.056-0.443h-5.32V692.198z"/>
		</g>
		<g>
			<path style="fill:#E5E5E4;" d="M519.019,705.494h-13.114c-1.04,0-2.001-0.55-2.528-1.446l-13.852-23.54l-13.849,23.54
				c-0.527,0.896-1.488,1.446-2.528,1.446h-13.116c-1.62,0-2.933-1.313-2.933-2.933v-51.976c0-1.62,1.313-2.933,2.933-2.933h13.116
				c1.62,0,2.933,1.313,2.933,2.933v17.087l4.392-7.449c0.527-0.894,1.488-1.444,2.526-1.444h13.116
				c1.041,0,2.005,0.552,2.531,1.451l4.325,7.383v-17.028c0-1.62,1.313-2.933,2.933-2.933h13.114c1.62,0,2.933,1.313,2.933,2.933
				v51.976C521.952,704.181,520.639,705.494,519.019,705.494z M507.582,699.628h8.504v-46.11h-7.248v24.904
				c0,1.324-0.887,2.484-2.165,2.831c-1.276,0.349-2.628-0.206-3.298-1.348l-8.94-15.259h-9.759l-9.001,15.266
				c-0.672,1.141-2.021,1.688-3.298,1.34c-1.276-0.349-2.161-1.507-2.161-2.83v-24.904h-7.25v46.11h8.506l15.526-26.391
				c0.527-0.896,1.488-1.446,2.528-1.446c1.04,0,2.001,0.55,2.528,1.446L507.582,699.628z"/>
		</g>
		<g>
			<path style="fill:#E5E5E4;" d="M564.727,705.494h-12.988c-1.22,0-2.313-0.755-2.744-1.896l-19.641-51.976
				c-0.341-0.902-0.216-1.912,0.331-2.705c0.549-0.792,1.449-1.265,2.413-1.265h12.988c1.247,0,2.359,0.79,2.77,1.969l3.212,9.223
				l14.326-0.057l3.218-9.173c0.412-1.175,1.522-1.962,2.768-1.962h12.987c0.964,0,1.865,0.473,2.413,1.265
				c0.547,0.793,0.672,1.803,0.331,2.705l-19.641,51.976C567.039,704.739,565.947,705.494,564.727,705.494z M553.765,699.628h8.935
				l17.424-46.11h-6.664l-3.215,9.165c-0.411,1.172-1.515,1.957-2.757,1.962l-18.489,0.072c-0.004,0-0.007,0-0.011,0
				c-1.247,0-2.359-0.789-2.77-1.968l-3.215-9.231h-6.661L553.765,699.628z M558.328,690.633c-1.243,0-2.478-0.783-2.893-1.955
				l-6.589-18.63c-0.318-0.898-0.179-1.894,0.371-2.672c0.55-0.777,1.442-1.24,2.394-1.24h13.243c0.951,0,1.842,0.461,2.392,1.236
				c0.551,0.776,0.69,1.769,0.377,2.667l-6.526,18.629C560.684,689.846,559.574,690.633,558.328,690.633z M555.76,672.004
				l2.49,7.044l2.469-7.044H555.76z"/>
		</g>
		<g>
			<path style="fill:#E5E5E4;" d="M610.944,705.494h-13.116c-1.62,0-2.933-1.313-2.933-2.933v-51.976
				c0-1.62,1.313-2.933,2.933-2.933h13.116c1.62,0,2.933,1.313,2.933,2.933v51.976C613.877,704.181,612.564,705.494,610.944,705.494
				z M600.761,699.628h7.25v-46.11h-7.25V699.628z"/>
		</g>
		<g>
			<path style="fill:#E5E5E4;" d="M669.251,705.494h-13.114c-1.62,0-2.933-1.313-2.933-2.933v-13.666l-7.565,14.987
				c-0.498,0.989-1.511,1.612-2.618,1.612h-13.114c-1.62,0-2.933-1.313-2.933-2.933v-51.976c0-1.62,1.313-2.933,2.933-2.933h13.114
				c1.62,0,2.933,1.313,2.933,2.933v13.666l7.565-14.988c0.498-0.989,1.511-1.612,2.618-1.612h13.114
				c1.62,0,2.933,1.313,2.933,2.933v51.976C672.185,704.181,670.871,705.494,669.251,705.494z M659.07,699.628h7.248v-46.11h-8.377
				l-12.302,24.376c-0.612,1.212-1.974,1.847-3.297,1.532c-1.322-0.315-2.254-1.495-2.254-2.854v-23.055h-7.248v46.11h8.377
				l12.302-24.376c0.612-1.212,1.975-1.847,3.297-1.532c1.322,0.315,2.254,1.495,2.254,2.854V699.628z"/>
		</g>
		<g>
			<path style="fill:#E5E5E4;" d="M720.394,705.494h-39.281c-1.62,0-2.933-1.313-2.933-2.933v-7.43c0-1.62,1.313-2.933,2.933-2.933
				h10.181v-41.613c0-1.62,1.313-2.933,2.933-2.933h13.053c1.62,0,2.933,1.313,2.933,2.933v41.613h10.181
				c1.62,0,2.933,1.313,2.933,2.933v7.43C723.327,704.181,722.014,705.494,720.394,705.494z M684.046,699.628h33.415v-1.564H707.28
				c-1.62,0-2.933-1.313-2.933-2.933v-41.613h-7.187v41.613c0,1.62-1.313,2.933-2.933,2.933h-10.181V699.628z"/>
		</g>
		<g>
			<path style="fill:#E5E5E4;" d="M772.179,705.494h-39.347c-1.62,0-2.933-1.313-2.933-2.933v-51.976
				c0-1.62,1.313-2.933,2.933-2.933h39.347c1.62,0,2.933,1.313,2.933,2.933v7.43c0,1.62-1.313,2.933-2.933,2.933h-23.298v8.958
				h16.708c1.62,0,2.933,1.313,2.933,2.933v7.431c0,1.62-1.313,2.933-2.933,2.933h-16.708v8.995h23.298
				c1.62,0,2.933,1.313,2.933,2.933v7.43C775.112,704.181,773.799,705.494,772.179,705.494z M735.765,699.628h33.481v-1.564h-23.298
				c-1.62,0-2.933-1.313-2.933-2.933V680.27c0-1.62,1.313-2.933,2.933-2.933h16.708v-1.565h-16.708c-1.62,0-2.933-1.313-2.933-2.933
				v-14.824c0-1.62,1.313-2.933,2.933-2.933h23.298v-1.564h-33.481V699.628z"/>
		</g>
		<g>
			<path style="fill:#E5E5E4;" d="M826.136,705.494h-13.114c-1.62,0-2.933-1.313-2.933-2.933v-13.665l-7.563,14.986
				c-0.498,0.989-1.511,1.612-2.618,1.612h-13.116c-1.62,0-2.933-1.313-2.933-2.933v-51.976c0-1.62,1.313-2.933,2.933-2.933h13.116
				c1.62,0,2.933,1.313,2.933,2.933v13.665l7.563-14.986c0.498-0.989,1.511-1.612,2.618-1.612h13.114
				c1.62,0,2.933,1.313,2.933,2.933v51.976C829.069,704.181,827.756,705.494,826.136,705.494z M815.955,699.628h7.248v-46.11h-8.375
				l-12.302,24.376c-0.612,1.212-1.976,1.847-3.297,1.532c-1.322-0.315-2.254-1.495-2.254-2.854v-23.055h-7.25v46.11h8.377
				l12.302-24.376c0.612-1.212,1.974-1.847,3.297-1.532c1.322,0.315,2.254,1.495,2.254,2.854V699.628z"/>
		</g>
		<g>
			<path style="fill:#E5E5E4;" d="M871.266,705.494H858.28c-1.22,0-2.313-0.755-2.744-1.896l-19.641-51.976
				c-0.341-0.902-0.216-1.912,0.331-2.705c0.548-0.792,1.449-1.265,2.413-1.265h12.988c1.247,0,2.359,0.79,2.77,1.969l3.212,9.223
				l14.326-0.057l3.218-9.173c0.412-1.175,1.522-1.962,2.768-1.962h12.987c0.964,0,1.865,0.473,2.413,1.265
				c0.547,0.793,0.672,1.804,0.331,2.705l-19.642,51.976C873.579,704.74,872.487,705.494,871.266,705.494z M860.306,699.628h8.934
				l17.425-46.11h-6.664l-3.217,9.165c-0.41,1.172-1.514,1.957-2.755,1.962l-18.489,0.072c-1.272,0.067-2.367-0.785-2.781-1.968
				l-3.215-9.231h-6.661L860.306,699.628z M864.869,690.633c-1.243,0-2.478-0.783-2.893-1.955l-6.589-18.63
				c-0.316-0.898-0.179-1.894,0.371-2.672c0.55-0.777,1.442-1.24,2.395-1.24h13.242c0.951,0,1.842,0.461,2.392,1.236
				c0.55,0.776,0.69,1.769,0.377,2.667l-6.525,18.629C867.225,689.846,866.115,690.633,864.869,690.633z M862.301,672.004
				l2.491,7.043l2.468-7.043H862.301z"/>
		</g>
		<g>
			<path style="fill:#E5E5E4;" d="M942.819,705.494h-13.114c-1.62,0-2.933-1.313-2.933-2.933v-13.666l-7.565,14.987
				c-0.498,0.989-1.511,1.612-2.618,1.612h-13.114c-1.62,0-2.933-1.313-2.933-2.933v-51.976c0-1.62,1.313-2.933,2.933-2.933h13.114
				c1.62,0,2.933,1.313,2.933,2.933v13.666l7.565-14.988c0.498-0.989,1.511-1.612,2.618-1.612h13.114
				c1.62,0,2.933,1.313,2.933,2.933v51.976C945.752,704.181,944.438,705.494,942.819,705.494z M932.637,699.628h7.248v-46.11h-8.377
				l-12.302,24.376c-0.612,1.212-1.975,1.847-3.297,1.532c-1.322-0.315-2.254-1.495-2.254-2.854v-23.055h-7.248v46.11h8.377
				l12.302-24.376c0.612-1.212,1.974-1.847,3.297-1.532c1.322,0.315,2.254,1.495,2.254,2.854V699.628z"/>
		</g>
		<g>
			<path style="fill:#E5E5E4;" d="M980.207,705.494c-5.908,0-11.068-1.233-15.336-3.665c-4.803-2.737-7.238-6.246-7.238-10.432
				v-29.685c0-4.188,2.438-7.693,7.244-10.417c4.268-2.417,9.425-3.643,15.33-3.643s11.062,1.226,15.33,3.643
				c4.806,2.723,7.244,6.228,7.244,10.417v3.734c0,1.62-1.313,2.933-2.933,2.933h-13.051c-1.62,0-2.933-1.313-2.933-2.933v-3.523
				c-0.073-0.063-0.202-0.158-0.412-0.276c-0.832-0.464-1.923-0.699-3.244-0.699c-1.313,0-2.387,0.231-3.192,0.688
				c-0.206,0.117-0.331,0.211-0.401,0.272v29.302c0.07,0.064,0.199,0.165,0.42,0.291c0.8,0.462,1.869,0.696,3.174,0.696
				c1.312,0,2.398-0.238,3.224-0.707c0.225-0.127,0.359-0.229,0.432-0.295v-3.496c0-1.62,1.313-2.933,2.933-2.933h13.051
				c1.62,0,2.933,1.313,2.933,2.933v3.697c0,4.186-2.436,7.696-7.238,10.432C991.274,704.261,986.114,705.494,980.207,705.494z
				 M980.207,653.518c-4.878,0-9.063,0.97-12.437,2.881c-4.271,2.42-4.271,4.597-4.271,5.313v29.685c0,0.717,0,2.899,4.276,5.335
				c3.373,1.921,7.555,2.896,12.431,2.896s9.058-0.975,12.431-2.896c4.276-2.435,4.276-4.618,4.276-5.335v-0.764h-7.185v0.764
				c0,1.221-0.443,3.52-3.407,5.199c-1.719,0.974-3.777,1.468-6.115,1.468c-2.346,0-4.4-0.498-6.104-1.479
				c-2.92-1.683-3.356-3.972-3.356-5.187v-29.685c0-1.22,0.438-3.516,3.374-5.18c1.698-0.962,3.747-1.45,6.085-1.45
				c2.332,0,4.382,0.485,6.098,1.44c2.979,1.658,3.424,3.964,3.424,5.19v0.8h7.185v-0.8c0-0.716,0-2.894-4.269-5.313
				C989.269,654.488,985.085,653.518,980.207,653.518z"/>
		</g>
		<g>
			<path style="fill:#E5E5E4;" d="M1055.919,705.494h-39.346c-1.62,0-2.933-1.313-2.933-2.933v-51.976
				c0-1.62,1.313-2.933,2.933-2.933h39.346c1.62,0,2.933,1.313,2.933,2.933v7.43c0,1.62-1.313,2.933-2.933,2.933h-23.298v8.958
				h16.709c1.62,0,2.933,1.313,2.933,2.933v7.431c0,1.62-1.313,2.933-2.933,2.933h-16.709v8.995h23.298
				c1.62,0,2.933,1.313,2.933,2.933v7.43C1058.852,704.181,1057.539,705.494,1055.919,705.494z M1019.507,699.628h33.48v-1.564
				h-23.298c-1.62,0-2.933-1.313-2.933-2.933V680.27c0-1.62,1.313-2.933,2.933-2.933h16.709v-1.565h-16.709
				c-1.62,0-2.933-1.313-2.933-2.933v-14.824c0-1.62,1.313-2.933,2.933-2.933h23.298v-1.564h-33.48V699.628z"/>
		</g>
	</g>
	<g>
		<g>
			<g>
				<path style="fill:#FCC20E;" d="M1045.721,686.51l5.759,2.575c-0.42,2.021-0.463,4.065-0.166,6.043l-5.895,2.252
					c-1.304,0.498-1.957,1.958-1.458,3.262l0.841,2.202c0.498,1.303,1.958,1.956,3.262,1.458l5.895-2.252l0,0
					c1.097,1.673,2.492,3.167,4.153,4.393l-2.575,5.759c-0.57,1.274,0.001,2.768,1.275,3.338l2.151,0.962
					c1.274,0.57,2.768-0.001,3.338-1.275l2.575-5.759c2.021,0.42,4.065,0.463,6.043,0.166l-0.001,0l2.252,5.895
					c0.498,1.304,1.958,1.956,3.262,1.458l2.202-0.841c1.303-0.498,1.956-1.958,1.458-3.262l-2.252-5.896
					c1.673-1.097,3.167-2.492,4.393-4.153l5.759,2.575c1.274,0.57,2.768-0.001,3.338-1.275l0.962-2.151
					c0.57-1.274-0.001-2.768-1.275-3.338l-5.759-2.575c0.42-2.021,0.463-4.065,0.166-6.043l5.895-2.252
					c1.304-0.498,1.957-1.958,1.458-3.262l-0.841-2.202c-0.498-1.303-1.958-1.956-3.262-1.458l-5.896,2.252
					c-1.097-1.673-2.492-3.167-4.153-4.393l2.575-5.759c0.57-1.274-0.001-2.768-1.275-3.338l-2.152-0.962
					c-1.274-0.57-2.768,0.001-3.338,1.275l-2.575,5.759c-2.021-0.42-4.065-0.463-6.043-0.166l-2.252-5.896
					c-0.498-1.304-1.958-1.957-3.262-1.458l-2.202,0.841c-1.303,0.498-1.956,1.958-1.458,3.262l2.252,5.896
					c-1.673,1.097-3.167,2.492-4.393,4.153l-5.759-2.575c-1.274-0.57-2.768,0.001-3.338,1.275l-0.962,2.151
					C1043.876,684.446,1044.447,685.941,1045.721,686.51z M1073.01,682.199c5.733,2.563,8.302,9.288,5.739,15.021
					c-2.563,5.733-9.289,8.302-15.021,5.739c-5.733-2.563-8.302-9.289-5.739-15.021
					C1060.552,682.205,1067.278,679.635,1073.01,682.199z"/>
			</g>
		</g>
		<g>
			<g>
				<path style="fill:#43484E;" d="M1075.531,719.355c-1.946,0-3.719-1.222-4.415-3.041l-1.651-4.321
					c-1.094,0.064-2.186,0.034-3.268-0.09l-1.888,4.221c-0.761,1.7-2.455,2.798-4.317,2.798c-0.666,0-1.315-0.138-1.926-0.412
					l-2.153-0.963c-1.153-0.515-2.035-1.448-2.485-2.627c-0.451-1.179-0.415-2.464,0.1-3.617l1.886-4.219
					c-0.815-0.728-1.565-1.522-2.247-2.378l-4.319,1.651c-0.542,0.207-1.109,0.311-1.686,0.311l0,0c-1.946,0-3.721-1.222-4.417-3.04
					l-0.841-2.202c-0.93-2.433,0.294-5.171,2.727-6.102l4.322-1.651c-0.063-1.093-0.034-2.185,0.089-3.27l-4.221-1.888
					c-1.153-0.515-2.035-1.448-2.485-2.627c-0.451-1.179-0.415-2.464,0.1-3.617l0.96-2.15c0.762-1.7,2.456-2.798,4.316-2.798
					c0.667,0,1.318,0.139,1.929,0.413l4.219,1.887c0.728-0.815,1.522-1.565,2.379-2.247l-1.651-4.319
					c-0.929-2.434,0.294-5.172,2.727-6.102l2.204-0.841c0.541-0.207,1.109-0.312,1.686-0.312c1.946,0,3.719,1.222,4.415,3.041
					l1.651,4.321c1.09-0.063,2.183-0.032,3.268,0.089l1.888-4.221c0.76-1.7,2.455-2.798,4.317-2.798
					c0.666,0,1.315,0.138,1.926,0.412l2.153,0.963c2.377,1.062,3.449,3.863,2.387,6.242l-1.888,4.222
					c0.815,0.728,1.565,1.522,2.246,2.377l4.321-1.651c0.542-0.207,1.109-0.312,1.686-0.312c1.945,0,3.719,1.222,4.415,3.04
					l0.841,2.202c0.929,2.433-0.294,5.171-2.727,6.102l-4.321,1.651c0.063,1.092,0.033,2.185-0.09,3.269l4.221,1.888
					c2.377,1.062,3.449,3.862,2.387,6.242l-0.964,2.153c-0.76,1.699-2.455,2.798-4.315,2.798c-0.667,0-1.318-0.139-1.929-0.413
					l-4.219-1.887c-0.727,0.816-1.521,1.566-2.377,2.247l1.65,4.32c0.929,2.433-0.294,5.171-2.727,6.102l-2.203,0.841
					C1076.677,719.25,1076.109,719.355,1075.531,719.355z M1070.921,707.433c0.899,0,1.724,0.554,2.054,1.415l2.251,5.896
					c0.082,0.215,0.279,0.24,0.422,0.188l2.201-0.841c0.167-0.064,0.252-0.254,0.188-0.422l-2.251-5.896
					c-0.368-0.965-0.016-2.057,0.849-2.624c1.488-0.976,2.776-2.193,3.828-3.62c0.613-0.83,1.723-1.126,2.668-0.701l5.759,2.575
					c0.229,0.03,0.368-0.022,0.432-0.165l0.962-2.151c0.073-0.164-0.001-0.358-0.165-0.431l-5.76-2.576
					c-0.944-0.422-1.467-1.443-1.256-2.455c0.359-1.734,0.408-3.507,0.145-5.27c-0.153-1.022,0.425-2.012,1.391-2.381l5.895-2.252
					c0.168-0.064,0.252-0.254,0.188-0.422l-0.841-2.202c-0.056-0.145-0.193-0.211-0.305-0.211l-6.012,2.275
					c-0.962,0.367-2.058,0.016-2.625-0.849c-0.975-1.488-2.193-2.776-3.619-3.83c-0.831-0.614-1.123-1.724-0.7-2.667l2.575-5.759
					c0.073-0.164-0.001-0.358-0.165-0.431l-2.153-0.963c-0.232-0.029-0.368,0.022-0.432,0.166l-2.575,5.759
					c-0.422,0.944-1.445,1.464-2.456,1.256c-1.721-0.358-3.517-0.406-5.268-0.145c-1.022,0.156-2.012-0.424-2.382-1.39l-2.253-5.895
					c-0.056-0.146-0.193-0.212-0.305-0.212l-2.319,0.864c-0.167,0.064-0.252,0.253-0.188,0.422l2.253,5.896
					c0.368,0.966,0.016,2.058-0.849,2.625c-1.489,0.977-2.778,2.195-3.83,3.62c-0.614,0.83-1.723,1.124-2.668,0.701l-5.759-2.575
					c-0.228-0.025-0.367,0.022-0.433,0.165l-0.959,2.15c-0.047,0.103-0.03,0.193-0.009,0.251c0.023,0.058,0.07,0.136,0.172,0.182
					l5.759,2.575c0.944,0.422,1.467,1.443,1.256,2.455c-0.361,1.735-0.408,3.508-0.143,5.269c0.153,1.022-0.425,2.014-1.391,2.382
					l-5.896,2.252c-0.168,0.064-0.252,0.253-0.188,0.422l0.841,2.202c0.056,0.145,0.195,0.21,0.306,0.21l6.011-2.275
					c0.962-0.365,2.058-0.016,2.624,0.849c0.977,1.489,2.196,2.778,3.62,3.83c0.832,0.614,1.124,1.724,0.702,2.668l-2.575,5.759
					c-0.046,0.102-0.029,0.193-0.007,0.25c0.023,0.058,0.07,0.136,0.172,0.182l2.151,0.963c0.231,0.03,0.368-0.022,0.432-0.166
					l2.575-5.759c0.423-0.944,1.447-1.462,2.456-1.256c1.721,0.359,3.52,0.409,5.267,0.144
					C1070.702,707.441,1070.812,707.433,1070.921,707.433z M1068.363,706.152c-1.913,0-3.775-0.399-5.534-1.185
					c-3.308-1.479-5.843-4.158-7.136-7.545c-1.295-3.386-1.192-7.073,0.288-10.383c2.182-4.88,7.047-8.034,12.394-8.034
					c1.913,0,3.775,0.399,5.534,1.185c3.308,1.479,5.843,4.158,7.138,7.545c1.293,3.386,1.19,7.074-0.289,10.383
					C1078.575,702.998,1073.71,706.152,1068.363,706.152z M1068.375,683.405c-3.613,0-6.903,2.131-8.378,5.43
					c-1,2.236-1.068,4.728-0.195,7.016c0.875,2.289,2.588,4.099,4.823,5.099c1.19,0.532,2.448,0.801,3.738,0.801
					c3.613,0,6.903-2.131,8.378-5.43c1-2.236,1.068-4.728,0.195-7.016c-0.874-2.289-2.586-4.099-4.823-5.099
					C1070.923,683.675,1069.665,683.405,1068.375,683.405z"/>
			</g>
		</g>
	</g>
	<g>
		<g>
			<path style="fill:#43484E;" d="M727.242,519.078c-0.325,0-0.653-0.108-0.925-0.33c-0.629-0.512-0.722-1.436-0.209-2.064
				l0.927-1.136c0.51-0.627,1.432-0.722,2.062-0.209c0.629,0.512,0.722,1.436,0.209,2.064l-0.927,1.136
				C728.09,518.894,727.668,519.078,727.242,519.078z"/>
		</g>
		<g>
			<path style="fill:#43484E;" d="M733.624,511.257c-0.325,0-0.653-0.108-0.925-0.33c-0.627-0.512-0.722-1.436-0.211-2.063
				l1.817-2.228c0.513-0.628,1.435-0.723,2.064-0.21c0.627,0.512,0.722,1.436,0.211,2.063l-1.817,2.228
				C734.472,511.073,734.05,511.257,733.624,511.257z M740.897,502.343c-0.325,0-0.653-0.108-0.925-0.33
				c-0.629-0.512-0.722-1.436-0.209-2.064l1.817-2.228c0.51-0.627,1.434-0.723,2.062-0.209c0.629,0.512,0.722,1.436,0.209,2.064
				l-1.817,2.228C741.745,502.159,741.322,502.343,740.897,502.343z M748.169,493.43c-0.325,0-0.653-0.108-0.925-0.33
				c-0.627-0.512-0.722-1.436-0.21-2.063l1.817-2.229c0.513-0.629,1.434-0.723,2.064-0.21c0.627,0.512,0.722,1.436,0.211,2.063
				l-1.817,2.229C749.017,493.246,748.595,493.43,748.169,493.43z M755.442,484.516c-0.325,0-0.653-0.108-0.925-0.33
				c-0.627-0.512-0.722-1.436-0.211-2.063l1.817-2.228c0.513-0.629,1.435-0.723,2.064-0.21c0.627,0.512,0.722,1.436,0.211,2.063
				l-1.818,2.228C756.29,484.332,755.867,484.516,755.442,484.516z M762.713,475.603c-0.325,0-0.653-0.108-0.925-0.33
				c-0.629-0.513-0.722-1.437-0.209-2.064l1.819-2.228c0.51-0.627,1.434-0.723,2.062-0.209c0.629,0.513,0.722,1.436,0.209,2.064
				l-1.819,2.229C763.561,475.419,763.138,475.603,762.713,475.603z"/>
		</g>
		<g>
			<path style="fill:#43484E;" d="M769.985,466.689c-0.325,0-0.653-0.108-0.925-0.33c-0.629-0.512-0.722-1.436-0.209-2.064
				l0.927-1.136c0.51-0.627,1.434-0.723,2.062-0.209c0.629,0.512,0.722,1.436,0.209,2.064l-0.927,1.136
				C770.833,466.505,770.411,466.689,769.985,466.689z"/>
		</g>
	</g>
	<g>
		<path style="fill:#43484E;" d="M1093.704,536.188H112.592c-1.215,0-2.2-0.985-2.2-2.2c0-1.215,0.985-2.2,2.2-2.2h981.111
			c1.214,0,2.2,0.985,2.2,2.2C1095.904,535.203,1094.918,536.188,1093.704,536.188z"/>
	</g>
	<g>
		<circle style="fill:#D9E484;" cx="106.296" cy="558.802" r="6.296"/>
	</g>
	<g>
		<circle style="fill:#D9E484;" cx="1093.704" cy="743.318" r="6.296"/>
	</g>
	<g>
		<circle style="fill:#FCC20E;" cx="658.068" cy="441.407" r="6.296"/>
	</g>
	<g>
		<circle style="fill:#EF5555;" cx="775.857" cy="456.618" r="3.678"/>
	</g>
	<g>
		<g>
			<rect x="143.704" y="545.39" style="fill:#4BB7E8;" width="13.115" height="13.452"/>
			<path style="fill:#43484E;" d="M156.819,561.774h-13.115c-1.62,0-2.933-1.313-2.933-2.933v-13.452
				c0-1.62,1.313-2.933,2.933-2.933h13.115c1.62,0,2.933,1.313,2.933,2.933v13.452C159.752,560.461,158.439,561.774,156.819,561.774
				z M146.637,555.908h7.249v-7.585h-7.249V555.908z"/>
		</g>
		<g>
			<path style="fill:#4BB7E8;" d="M156.819,630.943c0,1.835,0.628,3.382,1.887,4.64c0.603,0.603,1.279,1.053,2.021,1.367
				c0.864,0.109,1.743,0.183,2.651,0.183c0.907,0,1.785-0.075,2.648-0.183c0.741-0.314,1.417-0.764,2.021-1.367
				c1.258-1.258,1.887-2.805,1.887-4.64v-13.451c0,1.835-0.63,3.382-1.887,4.64c-1.259,1.258-2.816,1.887-4.67,1.887
				c-1.856,0-3.414-0.63-4.671-1.887c-1.259-1.257-1.887-2.805-1.887-4.64V630.943z"/>
			<path style="fill:#43484E;" d="M163.378,640.067c-0.934,0-1.892-0.065-3.015-0.206c-0.269-0.034-0.532-0.104-0.781-0.21
				c-1.102-0.468-2.094-1.138-2.949-1.993c-1.797-1.795-2.746-4.117-2.746-6.714v-13.452c0-1.62,1.313-2.933,2.933-2.933
				c1.62,0,2.933,1.313,2.933,2.933c0,1.065,0.316,1.856,1.027,2.565c0.712,0.712,1.513,1.029,2.599,1.029
				c1.083,0,1.884-0.317,2.597-1.03c0.709-0.709,1.026-1.5,1.026-2.564c0-1.62,1.313-2.933,2.933-2.933s2.933,1.313,2.933,2.933
				v13.452c0,2.595-0.95,4.917-2.745,6.713c-0.859,0.857-1.85,1.527-2.95,1.994c-0.25,0.106-0.513,0.177-0.782,0.21
				C165.267,640.002,164.31,640.067,163.378,640.067z M161.55,634.093c1.353,0.147,2.299,0.146,3.651,0.001
				c0.281-0.155,0.536-0.349,0.774-0.587c0.708-0.708,1.025-1.5,1.025-2.564v-4.669c-2.241,0.896-5.01,0.894-7.249,0v4.669
				c0,1.064,0.316,1.855,1.027,2.566C161.016,633.746,161.27,633.938,161.55,634.093z"/>
		</g>
		<g>
			<rect x="169.934" y="545.39" style="fill:#4BB7E8;" width="13.116" height="13.452"/>
			<path style="fill:#43484E;" d="M183.051,561.774h-13.116c-1.62,0-2.933-1.313-2.933-2.933v-13.452
				c0-1.62,1.313-2.933,2.933-2.933h13.116c1.62,0,2.933,1.313,2.933,2.933v13.452C185.984,560.461,184.67,561.774,183.051,561.774z
				 M172.867,555.908h7.25v-7.585h-7.25V555.908z"/>
		</g>
	</g>
	<g>
		<g>
			<polygon style="fill:#4BB7E8;" points="227.86,604.714 227.86,591.262 214.745,545.39 201.63,545.39 201.63,558.841 
				214.745,558.841 			"/>
			<path style="fill:#43484E;" d="M227.858,607.646c-1.292,0-2.454-0.854-2.818-2.127l-12.507-43.745H201.63
				c-1.62,0-2.933-1.313-2.933-2.933v-13.452c0-1.62,1.313-2.933,2.933-2.933h13.115c1.31,0,2.46,0.868,2.82,2.127l13.115,45.873
				c0.075,0.262,0.113,0.534,0.113,0.806v13.451c0,1.463-1.078,2.702-2.526,2.905C228.13,607.637,227.993,607.646,227.858,607.646z
				 M204.563,555.908h10.138l-2.168-7.585h-7.97V555.908z"/>
		</g>
		<g>
			<rect x="227.86" y="545.39" style="fill:#4BB7E8;" width="13.115" height="13.452"/>
			<path style="fill:#43484E;" d="M240.975,561.774H227.86c-1.62,0-2.933-1.313-2.933-2.933v-13.452c0-1.62,1.313-2.933,2.933-2.933
				h13.115c1.62,0,2.933,1.313,2.933,2.933v13.452C243.908,560.461,242.595,561.774,240.975,561.774z M230.793,555.908h7.249v-7.585
				h-7.249V555.908z"/>
		</g>
	</g>
	<g>
		<g>
			<path style="fill:#4BB7E8;" d="M282.87,637.133c0.512-0.237,0.988-0.551,1.412-0.976c0.958-0.958,1.438-2.142,1.438-3.551
				v-13.451c0,1.409-0.48,2.592-1.438,3.551c-0.96,0.96-2.144,1.44-3.551,1.44h-8.253v12.987H282.87z"/>
			<path style="fill:#43484E;" d="M282.87,640.067h-10.392c-1.62,0-2.933-1.313-2.933-2.933v-12.988c0-1.62,1.313-2.933,2.933-2.933
				h8.254c0.628,0,1.069-0.173,1.476-0.58c0.407-0.408,0.58-0.849,0.58-1.478c0-1.62,1.313-2.933,2.933-2.933
				c1.62,0,2.933,1.313,2.933,2.933v13.452c0,2.177-0.795,4.122-2.298,5.625c-0.642,0.643-1.401,1.169-2.254,1.564
				C283.716,639.974,283.295,640.067,282.87,640.067z M275.411,634.201h6.668c0.044-0.036,0.087-0.076,0.129-0.117
				c0.406-0.407,0.579-0.848,0.579-1.477v-5.78c-0.655,0.168-1.343,0.253-2.056,0.253h-5.321V634.201z"/>
		</g>
		<g>
			<path style="fill:#4BB7E8;" d="M294.903,549.197c-2.539-2.537-5.598-3.807-9.182-3.807h-26.23v13.452h26.23
				c3.584,0,6.643,1.27,9.182,3.807c2.537,2.538,3.806,5.641,3.806,9.309v-13.452C298.708,554.838,297.44,551.735,294.903,549.197z"
				/>
			<path style="fill:#43484E;" d="M298.708,574.89c-1.62,0-2.933-1.313-2.933-2.933c0-2.885-0.964-5.252-2.947-7.234
				c-1.985-1.984-4.31-2.948-7.108-2.948h-26.23c-1.62,0-2.933-1.313-2.933-2.933v-13.452c0-1.62,1.313-2.933,2.933-2.933h26.23
				c4.37,0,8.157,1.57,11.255,4.665c3.096,3.097,4.665,6.927,4.665,11.384v13.452C301.641,573.576,300.328,574.89,298.708,574.89z
				 M262.424,555.908h23.297c3.82,0,7.196,1.2,10.054,3.57v-0.973c0-2.885-0.964-5.252-2.947-7.235
				c-1.985-1.984-4.31-2.948-7.108-2.948h-23.297V555.908z"/>
		</g>
	</g>
	<g>
		<g>
			<rect x="330.85" y="624.019" style="fill:#4BB7E8;" width="26.231" height="13.115"/>
			<path style="fill:#43484E;" d="M357.081,640.067H330.85c-1.62,0-2.933-1.313-2.933-2.933v-13.115c0-1.62,1.313-2.933,2.933-2.933
				h26.231c1.62,0,2.933,1.313,2.933,2.933v13.115C360.014,638.753,358.701,640.067,357.081,640.067z M333.783,634.201h20.365
				v-7.249h-20.365V634.201z"/>
		</g>
		<g>
			<rect x="330.85" y="584.736" style="fill:#4BB7E8;" width="19.642" height="13.116"/>
			<path style="fill:#43484E;" d="M350.491,600.785H330.85c-1.62,0-2.933-1.313-2.933-2.933v-13.116c0-1.62,1.313-2.933,2.933-2.933
				h19.641c1.62,0,2.933,1.313,2.933,2.933v13.116C353.424,599.471,352.111,600.785,350.491,600.785z M333.783,594.919h13.775v-7.25
				h-13.775V594.919z"/>
		</g>
		<g>
			<polygon style="fill:#4BB7E8;" points="317.735,545.39 317.735,558.841 330.85,558.841 330.85,558.505 357.081,558.505 
				357.081,545.39 			"/>
			<path style="fill:#43484E;" d="M330.85,561.774h-13.115c-1.62,0-2.933-1.313-2.933-2.933v-13.452c0-1.62,1.313-2.933,2.933-2.933
				h39.346c1.62,0,2.933,1.313,2.933,2.933v13.116c0,1.62-1.313,2.933-2.933,2.933h-24.867
				C331.806,561.652,331.342,561.774,330.85,561.774z M320.668,555.908h8.818c0.407-0.214,0.871-0.336,1.364-0.336h23.298v-7.25
				h-33.48V555.908z"/>
		</g>
	</g>
	<g>
		<path style="fill:#4BB7E8;" d="M393.447,598.443c1.407,0,2.591-0.5,3.551-1.503c0.958-1.002,1.439-2.164,1.439-3.487v-13.452
			c0,1.323-0.48,2.485-1.439,3.487c-0.96,1.003-2.144,1.503-3.551,1.503h-8.253v13.452H393.447z"/>
		<path style="fill:#43484E;" d="M393.447,601.376h-8.254c-1.62,0-2.933-1.313-2.933-2.933v-13.452c0-1.62,1.313-2.933,2.933-2.933
			h8.254c0.61,0,1.025-0.173,1.431-0.598c0.438-0.458,0.624-0.894,0.624-1.459c0-1.62,1.313-2.933,2.933-2.933
			c1.62,0,2.933,1.313,2.933,2.933v13.452c0,2.068-0.779,3.975-2.253,5.515C397.608,600.543,395.648,601.376,393.447,601.376z
			 M388.126,595.51h5.32c0.61,0,1.025-0.173,1.431-0.598c0.438-0.458,0.624-0.894,0.624-1.459v-5.788
			c-0.655,0.172-1.343,0.259-2.056,0.259h-5.32V595.51z"/>
	</g>
	<g>
		<path style="fill:#4BB7E8;" d="M407.617,549.453c-2.539-2.537-5.598-3.806-9.182-3.806l-26.23-0.128v13.452l26.23,0.128
			c3.584,0,6.643,1.269,9.182,3.806c2.537,2.538,3.806,5.598,3.806,9.181v-13.451C411.423,555.051,410.155,551.99,407.617,549.453z"
			/>
		<path style="fill:#43484E;" d="M411.423,575.018c-1.62,0-2.933-1.313-2.933-2.933c0-2.799-0.964-5.124-2.947-7.107
			c-1.984-1.983-4.31-2.947-7.108-2.947l-26.244-0.128c-1.614-0.008-2.919-1.319-2.919-2.933v-13.452
			c0-0.78,0.311-1.529,0.864-2.079c0.55-0.547,1.293-0.854,2.069-0.854c0.005,0,0.009,0,0.014,0l26.229,0.129
			c4.357,0,8.143,1.569,11.241,4.664c3.096,3.097,4.665,6.884,4.665,11.256v13.452C414.356,573.705,413.043,575.018,411.423,575.018
			z M375.139,556.05l23.311,0.114c3.809,0,7.181,1.199,10.04,3.57v-1.101c0-2.799-0.964-5.124-2.947-7.107
			c-1.984-1.982-4.309-2.947-7.108-2.947l-23.296-0.115V556.05z"/>
	</g>
	<g>
		<polygon style="fill:#4BB7E8;" points="505.905,545.39 489.526,594.525 473.148,545.39 460.033,545.39 460.033,558.841 
			473.148,558.841 489.526,607.976 505.905,558.841 519.02,558.841 519.02,545.39 		"/>
		<path style="fill:#43484E;" d="M489.525,610.909L489.525,610.909c-1.263,0-2.383-0.808-2.783-2.006l-15.708-47.13h-11.002
			c-1.62,0-2.933-1.313-2.933-2.933v-13.452c0-1.62,1.313-2.933,2.933-2.933h13.116c1.263,0,2.383,0.808,2.783,2.006l13.594,40.787
			l13.597-40.787c0.4-1.198,1.52-2.006,2.783-2.006h13.114c1.62,0,2.933,1.313,2.933,2.933v13.452c0,1.62-1.313,2.933-2.933,2.933
			h-11l-15.711,47.13C491.908,610.102,490.787,610.909,489.525,610.909z M489.101,597.427l0.424,1.274l0.425-1.274
			c-0.14,0.02-0.282,0.031-0.425,0.031l0,0C489.382,597.458,489.24,597.447,489.101,597.427z M508.019,548.323l-2.539,7.616
			c0.14-0.02,0.282-0.031,0.425-0.031h10.181v-7.585H508.019z M462.966,555.908h10.183c0.143,0,0.285,0.011,0.424,0.031
			l-2.538-7.616h-8.069V555.908z"/>
	</g>
	<g>
		<g>
			<polygon style="fill:#4BB7E8;" points="551.738,558.841 564.726,558.841 581.488,637.133 564.726,545.39 551.738,545.39 
				534.978,637.133 			"/>
			<path style="fill:#43484E;" d="M581.484,640.068c-1.356,0-2.571-0.945-2.866-2.32l-16.264-75.973h-8.245l-16.264,75.973
				c-0.336,1.568-1.873,2.574-3.439,2.264c-1.573-0.312-2.604-1.827-2.316-3.404l16.761-91.744c0.255-1.394,1.469-2.406,2.886-2.406
				h12.988c1.416,0,2.631,1.012,2.886,2.406l16.686,91.34c0.097,0.292,0.15,0.605,0.15,0.931c0,1.609-1.295,2.916-2.9,2.933
				C581.527,640.067,581.506,640.068,581.484,640.068z M552.798,555.908h10.869l-1.386-7.585h-8.096L552.798,555.908z"/>
		</g>
		<g>
			<polygon style="fill:#4BB7E8;" points="554.307,604.504 551.726,617.383 564.758,617.473 562.184,604.504 			"/>
			<path style="fill:#43484E;" d="M564.758,620.406c-0.007,0-0.013,0-0.02,0l-13.033-0.09c-0.875-0.006-1.703-0.402-2.254-1.082
				c-0.553-0.679-0.773-1.569-0.602-2.427l2.581-12.879c0.275-1.371,1.478-2.357,2.876-2.357h7.878c1.399,0,2.605,0.989,2.877,2.362
				l2.574,12.969c0.172,0.864-0.054,1.76-0.617,2.44C566.461,620.016,565.632,620.406,564.758,620.406z M555.3,614.475l5.88,0.041
				l-1.405-7.079h-3.066L555.3,614.475z"/>
		</g>
	</g>
	<g>
		<rect x="597.829" y="545.39" style="fill:#4BB7E8;" width="13.115" height="13.452"/>
		<path style="fill:#43484E;" d="M610.944,561.774h-13.116c-1.62,0-2.933-1.313-2.933-2.933v-13.452c0-1.62,1.313-2.933,2.933-2.933
			h13.116c1.62,0,2.933,1.313,2.933,2.933v13.452C613.877,560.461,612.564,561.774,610.944,561.774z M600.761,555.908h7.25v-7.585
			h-7.25V555.908z"/>
	</g>
	<g>
		<g>
			<polygon style="fill:#4BB7E8;" points="656.137,604.714 656.137,591.262 643.022,545.39 629.907,545.39 629.907,558.841 
				643.022,558.841 			"/>
			<path style="fill:#43484E;" d="M656.134,607.646c-1.29,0-2.453-0.854-2.817-2.127l-12.508-43.745h-10.902
				c-1.62,0-2.933-1.313-2.933-2.933v-13.452c0-1.62,1.313-2.933,2.933-2.933h13.114c1.309,0,2.46,0.868,2.82,2.127l13.116,45.873
				c0.074,0.262,0.113,0.534,0.113,0.806v13.451c0,1.463-1.077,2.702-2.526,2.905C656.406,607.637,656.27,607.646,656.134,607.646z
				 M632.84,555.908h10.138l-2.17-7.585h-7.969V555.908z"/>
		</g>
		<g>
			<rect x="656.137" y="545.39" style="fill:#4BB7E8;" width="13.115" height="13.452"/>
			<path style="fill:#43484E;" d="M669.251,561.774h-13.114c-1.62,0-2.933-1.313-2.933-2.933v-13.452
				c0-1.62,1.313-2.933,2.933-2.933h13.114c1.62,0,2.933,1.313,2.933,2.933v13.452C672.185,560.461,670.871,561.774,669.251,561.774
				z M659.07,555.908h7.248v-7.585h-7.248V555.908z"/>
		</g>
	</g>
	<g>
		<rect x="681.112" y="524.604" style="fill:#4BB7E8;" width="39.282" height="13.116"/>
		<path style="fill:#43484E;" d="M720.394,540.653h-39.281c-1.62,0-2.933-1.313-2.933-2.933v-13.116c0-1.62,1.313-2.933,2.933-2.933
			h39.281c1.62,0,2.933,1.313,2.933,2.933v13.116C723.327,539.339,722.014,540.653,720.394,540.653z M684.046,534.786h33.415v-7.25
			h-33.415V534.786z"/>
	</g>
	<g>
		<g>
			<rect x="745.947" y="584.736" style="fill:#4BB7E8;" width="19.642" height="13.116"/>
			<path style="fill:#43484E;" d="M765.589,600.785h-19.641c-1.62,0-2.933-1.313-2.933-2.933v-13.116
				c0-1.62,1.313-2.933,2.933-2.933h19.641c1.62,0,2.933,1.313,2.933,2.933v13.116C768.522,599.471,767.208,600.785,765.589,600.785
				z M748.881,594.919h13.775v-7.25h-13.775V594.919z"/>
		</g>
		<g>
			<rect x="745.947" y="624.019" style="fill:#4BB7E8;" width="26.231" height="13.115"/>
			<path style="fill:#43484E;" d="M772.178,640.067h-26.23c-1.62,0-2.933-1.313-2.933-2.933v-13.115c0-1.62,1.313-2.933,2.933-2.933
				h26.23c1.62,0,2.933,1.313,2.933,2.933v13.115C775.111,638.753,773.798,640.067,772.178,640.067z M748.881,634.201h20.364v-7.249
				h-20.364V634.201z"/>
		</g>
		<g>
			<polygon style="fill:#4BB7E8;" points="732.832,545.39 732.832,558.841 772.179,558.505 772.179,545.39 			"/>
			<path style="fill:#43484E;" d="M732.832,561.774c-0.773,0-1.515-0.305-2.065-0.85c-0.556-0.551-0.868-1.301-0.868-2.083v-13.452
				c0-1.62,1.313-2.933,2.933-2.933h39.346c1.62,0,2.933,1.313,2.933,2.933v13.116c0,1.61-1.298,2.919-2.909,2.933l-39.346,0.336
				C732.849,561.774,732.841,561.774,732.832,561.774z M735.765,548.323v7.56l33.48-0.286v-7.275H735.765z"/>
		</g>
	</g>
	<g>
		<g>
			<rect x="813.022" y="545.39" style="fill:#4BB7E8;" width="13.115" height="13.452"/>
			<path style="fill:#43484E;" d="M826.136,561.774h-13.114c-1.62,0-2.933-1.313-2.933-2.933v-13.452
				c0-1.62,1.313-2.933,2.933-2.933h13.114c1.62,0,2.933,1.313,2.933,2.933v13.452C829.069,560.461,827.756,561.774,826.136,561.774
				z M815.955,555.908h7.248v-7.585h-7.248V555.908z"/>
		</g>
		<g>
			<polygon style="fill:#4BB7E8;" points="813.022,604.714 813.022,591.262 799.907,545.39 786.792,545.39 786.792,558.841 
				799.907,558.841 			"/>
			<path style="fill:#43484E;" d="M813.019,607.646c-1.29,0-2.453-0.854-2.817-2.127l-12.507-43.745h-10.903
				c-1.62,0-2.933-1.313-2.933-2.933v-13.452c0-1.62,1.313-2.933,2.933-2.933h13.116c1.309,0,2.461,0.868,2.82,2.127l13.114,45.873
				c0.074,0.262,0.113,0.534,0.113,0.806v13.451c0,1.463-1.077,2.702-2.526,2.905C813.291,607.637,813.155,607.646,813.019,607.646z
				 M789.725,555.908h10.14l-2.17-7.585h-7.97V555.908z"/>
		</g>
	</g>
	<g>
		<g>
			<polygon style="fill:#4BB7E8;" points="860.848,604.504 858.267,617.383 871.299,617.473 868.725,604.504 			"/>
			<path style="fill:#43484E;" d="M871.299,620.406c-0.007,0-0.013,0-0.02,0l-13.033-0.09c-0.875-0.006-1.703-0.402-2.254-1.082
				c-0.553-0.679-0.773-1.569-0.601-2.427l2.581-12.879c0.275-1.371,1.478-2.357,2.876-2.357h7.878c1.399,0,2.605,0.989,2.877,2.362
				l2.574,12.969c0.172,0.864-0.055,1.76-0.617,2.44C873.002,620.016,872.173,620.406,871.299,620.406z M861.841,614.475l5.88,0.041
				l-1.405-7.079h-3.066L861.841,614.475z"/>
		</g>
		<g>
			<polygon style="fill:#4BB7E8;" points="858.28,558.841 871.267,558.841 888.029,637.133 871.267,545.39 858.28,545.39 
				841.519,637.133 			"/>
			<path style="fill:#43484E;" d="M841.522,640.068c-0.189,0-0.381-0.019-0.573-0.057c-1.572-0.312-2.604-1.827-2.316-3.404
				l16.761-91.744c0.255-1.394,1.469-2.406,2.886-2.406h12.987c1.416,0,2.631,1.012,2.886,2.406l16.688,91.34
				c0.097,0.292,0.15,0.605,0.15,0.931c0,1.61-1.296,2.916-2.901,2.933c-0.02,0-0.042,0.001-0.063,0.001
				c-1.356,0-2.571-0.945-2.866-2.319l-16.265-75.974h-8.244l-16.264,75.973C844.093,639.123,842.878,640.068,841.522,640.068z
				 M859.339,555.908h10.867l-1.386-7.585h-8.095L859.339,555.908z"/>
		</g>
	</g>
	<g>
		<g>
			<rect x="929.704" y="545.39" style="fill:#4BB7E8;" width="13.115" height="13.452"/>
			<path style="fill:#43484E;" d="M942.819,561.774h-13.114c-1.62,0-2.933-1.313-2.933-2.933v-13.452
				c0-1.62,1.313-2.933,2.933-2.933h13.114c1.62,0,2.933,1.313,2.933,2.933v13.452C945.752,560.461,944.438,561.774,942.819,561.774
				z M932.637,555.908h7.248v-7.585h-7.248V555.908z"/>
		</g>
		<g>
			<polygon style="fill:#4BB7E8;" points="929.704,604.714 929.704,591.262 916.589,545.39 903.474,545.39 903.474,558.841 
				916.589,558.841 			"/>
			<path style="fill:#43484E;" d="M929.701,607.646c-1.29,0-2.453-0.854-2.817-2.127l-12.508-43.745h-10.902
				c-1.62,0-2.933-1.313-2.933-2.933v-13.452c0-1.62,1.313-2.933,2.933-2.933h13.114c1.309,0,2.46,0.868,2.82,2.127l13.116,45.873
				c0.075,0.262,0.113,0.534,0.113,0.806v13.451c0,1.463-1.077,2.702-2.526,2.905C929.974,607.637,929.838,607.646,929.701,607.646z
				 M906.407,555.908h10.138l-2.17-7.585h-7.969V555.908z"/>
		</g>
	</g>
	<g>
		<g>
			<path style="fill:#4BB7E8;" d="M986.796,617.492c0,1.835-0.639,3.382-1.919,4.64c-1.279,1.258-2.838,1.887-4.671,1.887
				c-1.833,0-3.381-0.63-4.638-1.887c-1.257-1.257-1.887-2.805-1.887-4.64v13.451c0,1.835,0.63,3.382,1.887,4.64
				c0.607,0.606,1.284,1.059,2.025,1.373c0.853,0.105,1.718,0.177,2.613,0.177c0.9,0,1.769-0.073,2.625-0.179
				c0.745-0.314,1.43-0.766,2.046-1.372c1.28-1.258,1.919-2.805,1.919-4.64v-6.59h11.852c0.786-2.128,1.2-4.41,1.2-6.862v-6.59
				h-13.052V617.492z"/>
			<path style="fill:#43484E;" d="M980.207,640.067c-0.925,0-1.87-0.064-2.973-0.2c-0.269-0.033-0.533-0.104-0.783-0.209
				c-1.097-0.465-2.091-1.137-2.955-1.999c-1.799-1.8-2.748-4.121-2.748-6.715v-13.452c0-1.62,1.313-2.933,2.933-2.933
				c1.62,0,2.933,1.313,2.933,2.933c0,1.063,0.317,1.855,1.028,2.566c0.71,0.71,1.502,1.028,2.565,1.028
				c1.058,0,1.889-0.332,2.614-1.045c0.722-0.708,1.043-1.494,1.043-2.549v-6.589c0-1.62,1.313-2.933,2.933-2.933h13.051
				c1.62,0,2.933,1.313,2.933,2.933v6.589c0,2.745-0.466,5.396-1.382,7.878c-0.425,1.152-1.524,1.917-2.751,1.917h-8.918v3.656
				c0,2.607-0.967,4.935-2.797,6.733c-0.867,0.851-1.862,1.517-2.96,1.981c-0.249,0.105-0.511,0.175-0.781,0.208
				C982.083,640.003,981.133,640.067,980.207,640.067z M978.414,634.098c1.325,0.14,2.27,0.138,3.6-0.001
				c0.291-0.159,0.556-0.359,0.808-0.606c0.72-0.708,1.041-1.494,1.041-2.548v-4.688c-2.247,0.913-5.008,0.922-7.25,0.023v4.665
				c0,1.063,0.318,1.855,1.03,2.567C977.882,633.75,978.137,633.944,978.414,634.098z M988.904,621.421h7.566
				c0.295-1.263,0.444-2.579,0.444-3.929v-3.656h-7.185v3.656C989.729,618.895,989.448,620.218,988.904,621.421z"/>
		</g>
		<g>
			<path style="fill:#4BB7E8;" d="M994.091,551.18c-3.839-3.86-8.467-5.79-13.885-5.79c-5.416,0-10.044,1.93-13.883,5.79
				c-3.839,3.861-5.757,8.499-5.757,13.915v13.451c0-5.416,1.918-10.055,5.757-13.915c3.209-3.227,6.979-5.086,11.291-5.615
				c0.789-0.337,1.652-0.511,2.592-0.511c0.942,0,1.808,0.175,2.604,0.513c4.308,0.531,8.074,2.389,11.28,5.614
				c2.086,2.097,3.584,4.433,4.536,6.99h1.221v-6.526C999.848,559.679,997.929,555.041,994.091,551.18z"/>
			<path style="fill:#43484E;" d="M960.566,581.48c-1.62,0-2.933-1.313-2.933-2.933v-13.452c0-6.193,2.224-11.571,6.611-15.984
				c4.391-4.416,9.762-6.655,15.963-6.655c6.201,0,11.572,2.239,15.963,6.655c4.387,4.411,6.611,9.789,6.611,15.984v6.526
				c0,1.62-1.313,2.933-2.933,2.933h-1.22c-1.224,0-2.321-0.761-2.748-1.909c-0.813-2.183-2.114-4.183-3.868-5.945
				c-2.74-2.755-5.868-4.316-9.56-4.771c-0.269-0.033-0.534-0.104-0.785-0.21c-0.889-0.378-2.026-0.379-2.904-0.003
				c-0.252,0.107-0.518,0.179-0.791,0.212c-3.696,0.454-6.826,2.015-9.568,4.773c-3.3,3.319-4.904,7.194-4.904,11.847
				C963.499,580.167,962.186,581.48,960.566,581.48z M983.551,556.157c4.818,0.675,9.061,2.829,12.619,6.405
				c0.225,0.226,0.443,0.454,0.656,0.686c-0.377-3.845-1.962-7.131-4.815-10.001c-3.295-3.314-7.156-4.925-11.804-4.925
				c-4.647,0-8.508,1.611-11.804,4.925c-2.853,2.87-4.438,6.155-4.815,10c0.212-0.231,0.431-0.459,0.656-0.685
				c3.56-3.58,7.807-5.734,12.629-6.407C978.966,555.381,981.445,555.381,983.551,556.157z"/>
		</g>
	</g>
	<g>
		<g>
			<rect x="1029.688" y="584.736" style="fill:#4BB7E8;" width="19.642" height="13.116"/>
			<path style="fill:#43484E;" d="M1049.33,600.785h-19.642c-1.62,0-2.933-1.313-2.933-2.933v-13.116
				c0-1.62,1.313-2.933,2.933-2.933h19.642c1.62,0,2.933,1.313,2.933,2.933v13.116
				C1052.263,599.471,1050.95,600.785,1049.33,600.785z M1032.621,594.919h13.776v-7.25h-13.776V594.919z"/>
		</g>
		<g>
			<rect x="1029.688" y="624.019" style="fill:#4BB7E8;" width="26.231" height="13.115"/>
			<path style="fill:#43484E;" d="M1055.919,640.067h-26.232c-1.62,0-2.933-1.313-2.933-2.933v-13.115
				c0-1.62,1.313-2.933,2.933-2.933h26.232c1.62,0,2.933,1.313,2.933,2.933v13.115
				C1058.852,638.753,1057.539,640.067,1055.919,640.067z M1032.621,634.201h20.365v-7.249h-20.365V634.201z"/>
		</g>
		<g>
			<polygon style="fill:#4BB7E8;" points="1016.573,545.39 1016.573,558.841 1055.919,558.505 1055.919,545.39 			"/>
			<path style="fill:#43484E;" d="M1016.573,561.774c-0.773,0-1.515-0.305-2.065-0.85c-0.556-0.551-0.868-1.301-0.868-2.083v-13.452
				c0-1.62,1.313-2.933,2.933-2.933h39.346c1.62,0,2.933,1.313,2.933,2.933v13.116c0,1.61-1.297,2.919-2.909,2.933l-39.346,0.336
				C1016.591,561.774,1016.582,561.774,1016.573,561.774z M1019.507,548.323v7.56l33.48-0.286v-7.275H1019.507z"/>
		</g>
	</g>
	<g>
		<path style="fill:#FFFFFF;" d="M143.704,558.841h13.115v72.102c0,1.835,0.628,3.382,1.887,4.64
			c1.257,1.257,2.816,1.887,4.671,1.887c1.854,0,3.411-0.63,4.67-1.887c1.258-1.258,1.887-2.805,1.887-4.64v-72.102h13.117v72.102
			c0,5.417-1.931,10.044-5.79,13.883c-3.861,3.839-8.488,5.759-13.883,5.759c-5.397,0-10.024-1.92-13.883-5.759
			c-3.861-3.839-5.79-8.466-5.79-13.883V558.841z"/>
	</g>
	<g>
		<path style="fill:#FFFFFF;" d="M201.63,558.841h13.115l13.115,45.872v-45.872h13.115v91.744H227.86l-13.115-45.872v45.872H201.63
			V558.841z"/>
	</g>
	<g>
		<path style="fill:#FFFFFF;" d="M259.491,558.841h26.23c3.584,0,6.643,1.27,9.182,3.807c2.537,2.538,3.806,5.641,3.806,9.309
			v65.641c0,3.582-1.268,6.643-3.806,9.18c-2.539,2.539-5.598,3.807-9.182,3.807h-26.23V558.841z M272.478,571.829v65.769h8.253
			c1.407,0,2.591-0.48,3.551-1.44c0.958-0.958,1.439-2.142,1.439-3.551v-55.788c0-1.408-0.48-2.591-1.439-3.551
			c-0.96-0.96-2.144-1.44-3.551-1.44H272.478z"/>
	</g>
	<g>
		<path style="fill:#FFFFFF;" d="M317.735,650.585v-91.744h39.346v13.116H330.85v26.231h19.642v13.116H330.85v26.167h26.231v13.115
			H317.735z"/>
	</g>
	<g>
		<path style="fill:#FFFFFF;" d="M372.206,558.969l26.23,0.128c3.584,0,6.643,1.269,9.182,3.806
			c2.537,2.538,3.806,5.598,3.806,9.181v26.231c0,4.99-2.155,8.744-6.461,11.26l6.461,41.009h-12.987l-6.525-39.282h-6.717v39.282
			h-12.987V558.969z M385.193,571.957v26.486h8.253c1.407,0,2.591-0.5,3.551-1.503c0.958-1.002,1.439-2.164,1.439-3.487v-16.378
			c0-1.408-0.48-2.612-1.439-3.614c-0.96-1.002-2.144-1.504-3.551-1.504H385.193z"/>
	</g>
	<g>
		<path style="fill:#FFFFFF;" d="M483,630.943l-9.852-29.493v49.135h-13.115v-91.744h13.115l16.378,49.135l16.379-49.135h13.115
			v91.744h-13.115V601.45l-9.789,29.493H483z"/>
	</g>
	<g>
		<path style="fill:#FFFFFF;" d="M551.739,558.841h12.987l19.642,91.744H571.38l-3.903-19.642l-18.49-0.127l-3.902,19.769h-12.987
			L551.739,558.841z M558.201,585.073l-6.59,32.883h13.242l-6.525-32.883H558.201z"/>
	</g>
	<g>
		<path style="fill:#FFFFFF;" d="M610.944,650.585h-13.115v-91.744h13.115V650.585z"/>
	</g>
	<g>
		<path style="fill:#FFFFFF;" d="M629.907,558.841h13.115l13.115,45.872v-45.872h13.115v91.744h-13.115l-13.115-45.872v45.872
			h-13.115V558.841z"/>
	</g>
	<g>
		<path style="fill:#FFFFFF;" d="M681.112,538.056h39.282v13.116h-13.115v78.628h-13.052v-78.628h-13.115V538.056z"/>
	</g>
	<g>
		<path style="fill:#FFFFFF;" d="M732.832,650.585v-91.744h39.346v13.116h-26.231v26.231h19.642v13.116h-19.642v26.167h26.231
			v13.115H732.832z"/>
	</g>
	<g>
		<path style="fill:#FFFFFF;" d="M786.792,558.841h13.115l13.115,45.872v-45.872h13.115v91.744h-13.115l-13.115-45.872v45.872
			h-13.115V558.841z"/>
	</g>
	<g>
		<path style="fill:#FFFFFF;" d="M858.28,558.841h12.987l19.642,91.744h-12.987l-3.903-19.642l-18.49-0.127l-3.902,19.769H838.64
			L858.28,558.841z M864.742,585.073l-6.59,32.883h13.242l-6.525-32.883H864.742z"/>
	</g>
	<g>
		<path style="fill:#FFFFFF;" d="M903.474,558.841h13.115l13.115,45.872v-45.872h13.115v91.744h-13.115l-13.115-45.872v45.872
			h-13.115V558.841z"/>
	</g>
	<g>
		<path style="fill:#FFFFFF;" d="M966.323,564.631c3.839-3.86,8.467-5.79,13.883-5.79c5.417,0,10.046,1.93,13.884,5.79
			c3.839,3.861,5.757,8.499,5.757,13.915v6.526h-13.052v-6.526c0-1.833-0.639-3.391-1.918-4.67c-1.28-1.28-2.838-1.919-4.671-1.919
			c-1.834,0-3.381,0.64-4.638,1.919c-1.257,1.279-1.887,2.837-1.887,4.67v52.397c0,1.835,0.63,3.382,1.887,4.64
			c1.258,1.257,2.805,1.887,4.638,1.887c1.833,0,3.392-0.63,4.671-1.887c1.279-1.258,1.918-2.805,1.918-4.64v-6.59h13.052v6.59
			c0,5.417-1.919,10.044-5.757,13.883c-3.839,3.839-8.467,5.759-13.884,5.759c-5.416,0-10.044-1.92-13.883-5.759
			c-3.839-3.839-5.757-8.466-5.757-13.883v-52.397C960.566,573.13,962.484,568.492,966.323,564.631z"/>
	</g>
	<g>
		<path style="fill:#FFFFFF;" d="M1016.573,650.585v-91.744h39.346v13.116h-26.232v26.231h19.642v13.116h-19.642v26.167h26.232
			v13.115H1016.573z"/>
	</g>
	<g>
		<path style="fill:#43484E;" d="M163.378,653.518c-6.173,0-11.54-2.225-15.951-6.612c-4.416-4.391-6.655-9.762-6.655-15.963
			v-72.102c0-1.62,1.313-2.933,2.933-2.933h13.115c1.62,0,2.933,1.313,2.933,2.933v72.102c0,1.064,0.316,1.855,1.027,2.566
			c0.712,0.711,1.513,1.028,2.599,1.028c1.083,0,1.884-0.317,2.597-1.03c0.709-0.709,1.026-1.501,1.026-2.564v-72.102
			c0-1.62,1.313-2.933,2.933-2.933h13.116c1.62,0,2.933,1.313,2.933,2.933v72.102c0,6.199-2.239,11.57-6.654,15.963
			C174.916,651.294,169.549,653.518,163.378,653.518z M146.637,561.774v69.169c0,4.647,1.611,8.508,4.925,11.804
			c3.319,3.3,7.184,4.905,11.815,4.905c4.63,0,8.495-1.605,11.815-4.906c3.314-3.296,4.925-7.158,4.925-11.803v-69.169h-7.25v69.169
			c0,2.595-0.95,4.917-2.745,6.713c-1.8,1.798-4.132,2.747-6.744,2.747c-2.617,0-4.949-0.95-6.745-2.746
			c-1.797-1.795-2.746-4.117-2.746-6.714v-69.169H146.637z"/>
	</g>
	<g>
		<path style="fill:#43484E;" d="M240.975,653.518H227.86c-1.31,0-2.46-0.868-2.82-2.127l-7.362-25.75v24.943
			c0,1.62-1.313,2.933-2.933,2.933H201.63c-1.62,0-2.933-1.313-2.933-2.933v-91.744c0-1.62,1.313-2.933,2.933-2.933h13.115
			c1.31,0,2.46,0.868,2.82,2.127l7.362,25.75v-24.943c0-1.62,1.313-2.933,2.933-2.933h13.115c1.62,0,2.933,1.313,2.933,2.933v91.744
			C243.908,652.205,242.595,653.518,240.975,653.518z M230.072,647.652h7.97v-85.878h-7.249v42.939c0,1.463-1.078,2.702-2.526,2.905
			c-1.447,0.198-2.825-0.692-3.227-2.098l-12.507-43.745h-7.97v85.878h7.249v-42.939c0-1.463,1.078-2.702,2.526-2.904
			c1.442-0.207,2.825,0.692,3.227,2.098L230.072,647.652z"/>
	</g>
	<g>
		<path style="fill:#43484E;" d="M285.721,653.518h-26.229c-1.62,0-2.933-1.313-2.933-2.933v-91.744c0-1.62,1.313-2.933,2.933-2.933
			h26.229c4.37,0,8.157,1.57,11.255,4.666c3.096,3.096,4.665,6.926,4.665,11.383v65.641c0,4.372-1.57,8.159-4.665,11.254
			C293.88,651.949,290.092,653.518,285.721,653.518z M262.424,647.652h23.296c2.798,0,5.124-0.965,7.109-2.949
			c1.982-1.982,2.946-4.307,2.946-7.106v-65.641c0-2.885-0.964-5.252-2.947-7.234c-1.985-1.984-4.31-2.948-7.108-2.948h-23.296
			V647.652z M280.732,640.531h-8.254c-1.62,0-2.933-1.313-2.933-2.933v-65.769c0-1.62,1.313-2.933,2.933-2.933h8.254
			c2.176,0,4.122,0.796,5.625,2.3c1.503,1.504,2.297,3.448,2.297,5.623v55.788c0,2.177-0.795,4.122-2.298,5.625
			C284.852,639.736,282.907,640.531,280.732,640.531z M275.411,634.665h5.321c0.627,0,1.069-0.174,1.477-0.581
			c0.406-0.407,0.579-0.848,0.579-1.477v-55.788c0-0.628-0.173-1.07-0.58-1.477c-0.407-0.407-0.848-0.58-1.476-0.58h-5.321V634.665z
			"/>
	</g>
	<g>
		<path style="fill:#43484E;" d="M357.081,653.518h-39.346c-1.62,0-2.933-1.313-2.933-2.933v-91.744c0-1.62,1.313-2.933,2.933-2.933
			h39.346c1.62,0,2.933,1.313,2.933,2.933v13.116c0,1.62-1.313,2.933-2.933,2.933h-23.298v20.365h16.709
			c1.62,0,2.933,1.313,2.933,2.933v13.116c0,1.62-1.313,2.933-2.933,2.933h-16.709v20.301h23.298c1.62,0,2.933,1.313,2.933,2.933
			v13.115C360.014,652.205,358.701,653.518,357.081,653.518z M320.668,647.652h33.48v-7.249H330.85c-1.62,0-2.933-1.313-2.933-2.933
			v-26.167c0-1.62,1.313-2.933,2.933-2.933h16.709v-7.25H330.85c-1.62,0-2.933-1.313-2.933-2.933v-26.231
			c0-1.62,1.313-2.933,2.933-2.933h23.298v-7.25h-33.48V647.652z"/>
	</g>
	<g>
		<path style="fill:#43484E;" d="M411.423,653.518h-12.988c-1.434,0-2.658-1.038-2.894-2.453l-6.118-36.829h-1.298v36.349
			c0,1.62-1.313,2.933-2.933,2.933h-12.987c-1.62,0-2.933-1.313-2.933-2.933v-91.616c0-0.78,0.311-1.529,0.864-2.079
			c0.553-0.551,1.241-0.899,2.083-0.854l26.229,0.128c4.357,0,8.144,1.57,11.241,4.665c3.096,3.096,4.665,6.883,4.665,11.255v26.231
			c0,5.298-2.136,9.638-6.203,12.664l6.168,39.149c0.133,0.847-0.11,1.71-0.667,2.362
			C413.095,653.143,412.281,653.518,411.423,653.518z M400.922,647.652h7.07l-5.926-37.62c-0.188-1.193,0.374-2.379,1.417-2.988
			c3.416-1.997,5.008-4.771,5.008-8.728v-26.231c0-2.799-0.964-5.124-2.947-7.107c-1.984-1.983-4.309-2.947-7.108-2.947
			l-23.296-0.114v85.736h7.121v-36.349c0-1.62,1.313-2.933,2.933-2.933h6.717c1.434,0,2.658,1.038,2.894,2.453L400.922,647.652z
			 M393.447,601.376h-8.254c-1.62,0-2.933-1.313-2.933-2.933v-26.486c0-1.62,1.313-2.933,2.933-2.933h8.254
			c2.2,0,4.16,0.833,5.668,2.408c1.474,1.542,2.254,3.493,2.254,5.643v16.378c0,2.068-0.779,3.975-2.253,5.515
			C397.608,600.543,395.648,601.376,393.447,601.376z M388.126,595.51h5.32c0.61,0,1.025-0.173,1.431-0.598
			c0.438-0.458,0.624-0.894,0.624-1.459v-16.378c0-0.655-0.187-1.129-0.625-1.588c-0.407-0.424-0.821-0.598-1.431-0.598h-5.32
			V595.51z"/>
	</g>
	<g>
		<path style="fill:#43484E;" d="M519.019,653.518h-13.114c-1.62,0-2.933-1.313-2.933-2.933v-30.987l-4.072,12.269
			c-0.398,1.2-1.521,2.009-2.784,2.009H483c-1.262,0-2.382-0.807-2.781-2.004l-4.137-12.385v31.097c0,1.62-1.313,2.933-2.933,2.933
			h-13.116c-1.62,0-2.933-1.313-2.933-2.933v-91.744c0-1.62,1.313-2.933,2.933-2.933h13.116c1.263,0,2.383,0.808,2.783,2.006
			l13.594,40.787l13.597-40.787c0.4-1.198,1.52-2.006,2.783-2.006h13.114c1.62,0,2.933,1.313,2.933,2.933v91.744
			C521.952,652.205,520.639,653.518,519.019,653.518z M508.838,647.652h7.248v-85.878h-8.067l-15.711,47.13
			c-0.4,1.198-1.521,2.006-2.783,2.006l0,0c-1.263,0-2.383-0.808-2.783-2.006l-15.708-47.13h-8.069v85.878h7.25V601.45
			c0-1.438,1.043-2.665,2.462-2.895c1.421-0.228,2.798,0.602,3.252,1.966l9.183,27.49h8.887l9.121-27.484
			c0.454-1.365,1.83-2.199,3.253-1.972c1.421,0.23,2.465,1.457,2.465,2.896V647.652z"/>
	</g>
	<g>
		<path style="fill:#43484E;" d="M584.367,653.518H571.38c-1.399,0-2.604-0.989-2.877-2.361l-3.437-17.298l-13.671-0.094
			l-3.432,17.388c-0.271,1.374-1.477,2.365-2.877,2.365h-12.987c-0.885,0-1.724-0.4-2.281-1.089
			c-0.556-0.688-0.772-1.592-0.587-2.458l19.639-91.744c0.291-1.353,1.485-2.319,2.869-2.319h12.988
			c1.383,0,2.578,0.967,2.869,2.319l19.641,91.744c0.185,0.866-0.032,1.769-0.587,2.458
			C586.092,653.118,585.252,653.518,584.367,653.518z M573.788,647.652h6.952l-18.385-85.878h-8.245l-18.383,85.878h6.949
			l3.434-17.404c0.272-1.382,1.511-2.396,2.897-2.365l18.489,0.127c1.392,0.009,2.585,0.996,2.857,2.361L573.788,647.652z
			 M564.854,620.889h-13.243c-0.879,0-1.711-0.394-2.268-1.074c-0.557-0.68-0.78-1.573-0.607-2.435l6.589-32.883
			c0.275-1.37,1.478-2.357,2.876-2.357h0.128c1.399,0,2.605,0.989,2.877,2.362l6.526,32.883c0.17,0.861-0.053,1.754-0.61,2.432
			C566.564,620.496,565.732,620.889,564.854,620.889z M555.19,615.023h6.092l-3.032-15.273L555.19,615.023z"/>
	</g>
	<g>
		<path style="fill:#43484E;" d="M610.944,653.518h-13.116c-1.62,0-2.933-1.313-2.933-2.933v-91.744c0-1.62,1.313-2.933,2.933-2.933
			h13.116c1.62,0,2.933,1.313,2.933,2.933v91.744C613.877,652.205,612.564,653.518,610.944,653.518z M600.761,647.652h7.25v-85.878
			h-7.25V647.652z"/>
	</g>
	<g>
		<path style="fill:#43484E;" d="M669.251,653.518h-13.114c-1.309,0-2.46-0.868-2.82-2.127l-7.363-25.75v24.944
			c0,1.62-1.313,2.933-2.933,2.933h-13.114c-1.62,0-2.933-1.313-2.933-2.933v-91.744c0-1.62,1.313-2.933,2.933-2.933h13.114
			c1.309,0,2.46,0.868,2.82,2.127l7.363,25.75v-24.944c0-1.62,1.313-2.933,2.933-2.933h13.114c1.62,0,2.933,1.313,2.933,2.933
			v91.744C672.185,652.205,670.871,653.518,669.251,653.518z M658.35,647.652h7.969v-85.878h-7.248v42.939
			c0,1.462-1.077,2.702-2.526,2.905c-1.448,0.202-2.826-0.691-3.227-2.098l-12.508-43.745h-7.969v85.878h7.248v-42.939
			c0-1.462,1.077-2.702,2.526-2.904c1.438-0.206,2.824,0.69,3.227,2.098L658.35,647.652z"/>
	</g>
	<g>
		<path style="fill:#43484E;" d="M707.28,632.733h-13.053c-1.62,0-2.933-1.313-2.933-2.933v-75.695h-10.181
			c-1.62,0-2.933-1.313-2.933-2.933v-13.116c0-1.62,1.313-2.933,2.933-2.933h39.281c1.62,0,2.933,1.313,2.933,2.933v13.116
			c0,1.62-1.313,2.933-2.933,2.933h-10.181V629.8C710.213,631.419,708.899,632.733,707.28,632.733z M697.16,626.867h7.187v-75.695
			c0-1.62,1.313-2.933,2.933-2.933h10.181v-7.25h-33.415v7.25h10.181c1.62,0,2.933,1.313,2.933,2.933V626.867z"/>
	</g>
	<g>
		<path style="fill:#43484E;" d="M772.179,653.518h-39.347c-1.62,0-2.933-1.313-2.933-2.933v-91.744c0-1.62,1.313-2.933,2.933-2.933
			h39.347c1.62,0,2.933,1.313,2.933,2.933v13.116c0,1.62-1.313,2.933-2.933,2.933h-23.298v20.365h16.708
			c1.62,0,2.933,1.313,2.933,2.933v13.116c0,1.62-1.313,2.933-2.933,2.933h-16.708v20.301h23.298c1.62,0,2.933,1.313,2.933,2.933
			v13.115C775.112,652.205,773.799,653.518,772.179,653.518z M735.765,647.652h33.481v-7.249h-23.298
			c-1.62,0-2.933-1.313-2.933-2.933v-26.167c0-1.62,1.313-2.933,2.933-2.933h16.708v-7.25h-16.708c-1.62,0-2.933-1.313-2.933-2.933
			v-26.231c0-1.62,1.313-2.933,2.933-2.933h23.298v-7.25h-33.481V647.652z"/>
	</g>
	<g>
		<path style="fill:#43484E;" d="M826.136,653.518h-13.114c-1.309,0-2.46-0.868-2.82-2.127l-7.361-25.748v24.942
			c0,1.62-1.313,2.933-2.933,2.933h-13.116c-1.62,0-2.933-1.313-2.933-2.933v-91.744c0-1.62,1.313-2.933,2.933-2.933h13.116
			c1.309,0,2.461,0.868,2.82,2.127l7.361,25.748v-24.942c0-1.62,1.313-2.933,2.933-2.933h13.114c1.62,0,2.933,1.313,2.933,2.933
			v91.744C829.069,652.205,827.756,653.518,826.136,653.518z M815.234,647.652h7.969v-85.878h-7.248v42.939
			c0,1.463-1.077,2.702-2.526,2.905c-1.446,0.202-2.826-0.691-3.227-2.098l-12.507-43.745h-7.97v85.878h7.25v-42.939
			c0-1.463,1.077-2.702,2.526-2.904c1.438-0.206,2.824,0.69,3.227,2.098L815.234,647.652z"/>
	</g>
	<g>
		<path style="fill:#43484E;" d="M890.909,653.518h-12.987c-1.399,0-2.604-0.989-2.877-2.361l-3.437-17.298l-13.672-0.094
			l-3.431,17.388c-0.271,1.374-1.477,2.365-2.877,2.365h-12.988c-0.885,0-1.724-0.4-2.281-1.089
			c-0.556-0.688-0.772-1.592-0.587-2.458l19.641-91.744c0.291-1.353,1.485-2.319,2.869-2.319h12.987
			c1.383,0,2.578,0.967,2.869,2.319l19.642,91.745c0.185,0.866-0.031,1.769-0.587,2.458
			C892.633,653.118,891.794,653.518,890.909,653.518z M880.329,647.652h6.952l-18.386-85.878h-8.244l-18.385,85.878h6.95
			l3.434-17.404c0.271-1.375,1.477-2.365,2.877-2.365c0.007,0,0.013,0,0.02,0l18.489,0.127c1.392,0.009,2.585,0.996,2.857,2.361
			L880.329,647.652z M871.394,620.889h-13.242c-0.879,0-1.711-0.394-2.268-1.074c-0.557-0.68-0.781-1.573-0.607-2.435l6.589-32.883
			c0.275-1.37,1.478-2.357,2.876-2.357h0.127c1.399,0,2.605,0.989,2.877,2.362l6.525,32.883c0.17,0.861-0.053,1.754-0.61,2.432
			C873.104,620.496,872.272,620.889,871.394,620.889z M861.731,615.023h6.091l-3.03-15.271L861.731,615.023z"/>
	</g>
	<g>
		<path style="fill:#43484E;" d="M942.819,653.518h-13.114c-1.309,0-2.46-0.868-2.82-2.127l-7.361-25.748v24.942
			c0,1.62-1.313,2.933-2.933,2.933h-13.116c-1.62,0-2.933-1.313-2.933-2.933v-91.744c0-1.62,1.313-2.933,2.933-2.933h13.116
			c1.309,0,2.46,0.868,2.82,2.127l7.361,25.748v-24.942c0-1.62,1.313-2.933,2.933-2.933h13.114c1.62,0,2.933,1.313,2.933,2.933
			v91.744C945.752,652.205,944.438,653.518,942.819,653.518z M931.917,647.652h7.969v-85.878h-7.248v42.939
			c0,1.463-1.077,2.702-2.526,2.905c-1.446,0.202-2.826-0.691-3.227-2.098l-12.507-43.745h-7.97v85.878h7.25v-42.939
			c0-1.463,1.077-2.702,2.526-2.904c1.436-0.206,2.824,0.69,3.227,2.098L931.917,647.652z"/>
	</g>
	<g>
		<path style="fill:#43484E;" d="M980.207,653.518c-6.197,0-11.566-2.226-15.957-6.618c-4.391-4.391-6.617-9.759-6.617-15.957
			v-52.396c0-6.193,2.224-11.571,6.611-15.984c4.391-4.416,9.762-6.655,15.963-6.655c6.201,0,11.572,2.239,15.963,6.655
			c4.387,4.411,6.611,9.789,6.611,15.984v6.526c0,1.62-1.313,2.933-2.933,2.933h-13.051c-1.62,0-2.933-1.313-2.933-2.933v-6.526
			c0-1.063-0.327-1.864-1.06-2.596c-0.733-0.733-1.534-1.061-2.596-1.061c-1.053,0-1.839,0.322-2.548,1.043
			c-0.713,0.726-1.046,1.557-1.046,2.614v52.396c0,1.063,0.318,1.855,1.03,2.566c0.709,0.71,1.501,1.028,2.563,1.028
			c1.058,0,1.889-0.332,2.614-1.045c0.722-0.708,1.043-1.494,1.043-2.549v-6.589c0-1.62,1.313-2.933,2.933-2.933h13.051
			c1.62,0,2.933,1.313,2.933,2.933v6.589c0,6.199-2.226,11.568-6.617,15.958C991.773,651.292,986.404,653.518,980.207,653.518z
			 M980.207,561.774c-4.647,0-8.508,1.611-11.804,4.925c-3.3,3.32-4.904,7.195-4.904,11.848v52.396c0,4.65,1.603,8.513,4.898,11.81
			c3.297,3.297,7.159,4.899,11.81,4.899c4.65,0,8.513-1.603,11.81-4.899c3.295-3.295,4.898-7.159,4.898-11.81v-3.656h-7.185v3.656
			c0,2.607-0.967,4.935-2.797,6.733c-1.815,1.784-4.14,2.728-6.726,2.728c-2.595,0-4.917-0.95-6.713-2.746
			c-1.797-1.798-2.747-4.12-2.747-6.714v-52.396c0-2.584,0.944-4.91,2.728-6.727c1.799-1.83,4.126-2.796,6.731-2.796
			c2.595,0,4.927,0.961,6.744,2.778c1.817,1.816,2.778,4.149,2.778,6.745v3.593h7.185v-3.593c0-4.654-1.604-8.529-4.904-11.848
			C988.715,563.385,984.854,561.774,980.207,561.774z"/>
	</g>
	<g>
		<path style="fill:#43484E;" d="M1055.919,653.518h-39.346c-1.62,0-2.933-1.313-2.933-2.933v-91.744
			c0-1.62,1.313-2.933,2.933-2.933h39.346c1.62,0,2.933,1.313,2.933,2.933v13.116c0,1.62-1.313,2.933-2.933,2.933h-23.298v20.365
			h16.709c1.62,0,2.933,1.313,2.933,2.933v13.116c0,1.62-1.313,2.933-2.933,2.933h-16.709v20.301h23.298
			c1.62,0,2.933,1.313,2.933,2.933v13.115C1058.852,652.205,1057.539,653.518,1055.919,653.518z M1019.507,647.652h33.48v-7.249
			h-23.298c-1.62,0-2.933-1.313-2.933-2.933v-26.167c0-1.62,1.313-2.933,2.933-2.933h16.709v-7.25h-16.709
			c-1.62,0-2.933-1.313-2.933-2.933v-26.231c0-1.62,1.313-2.933,2.933-2.933h23.298v-7.25h-33.48V647.652z"/>
	</g>
	<g>
		<path style="fill:#CAD6D6;" d="M163.377,646.016c-4.177,0-7.665-1.448-10.661-4.429c-2.99-2.973-4.443-6.454-4.443-10.644v-21.871
			h3.977v21.871c0,3.041,1.116,5.763,3.228,7.872c2.107,2.107,4.84,3.223,7.899,3.223c3.056,0,5.787-1.114,7.898-3.223
			c2.112-2.112,3.228-4.833,3.228-7.872v-21.871h3.979v21.871c0,4.188-1.453,7.669-4.443,10.644
			C171.042,644.568,167.554,646.016,163.377,646.016z"/>
	</g>
	<g>
		<path style="fill:#CAD6D6;" d="M231.304,646.016l-10.562-36.944h15.663v36.944H231.304z M206.198,646.016v-36.944h3.977v36.944
			H206.198z"/>
	</g>
	<g>
		<path style="fill:#CAD6D6;" d="M264.059,646.016v-36.944h3.85v33.094h12.822c2.619,0,4.964-0.962,6.782-2.778
			c1.816-1.818,2.776-4.161,2.776-6.782v-23.535h3.85v28.525c0,2.377-0.784,4.267-2.468,5.949c-1.684,1.686-3.574,2.469-5.951,2.469
			H264.059z"/>
	</g>
	<g>
		<polygon style="fill:#CAD6D6;" points="322.303,646.016 322.303,609.072 326.28,609.072 326.28,642.039 352.512,642.039 
			352.512,646.016 		"/>
	</g>
	<g>
		<path style="fill:#CAD6D6;" d="M402.307,646.016l-6.136-36.944h4.087l5.82,36.944H402.307z M376.774,646.016v-36.944h3.85v36.944
			H376.774z"/>
	</g>
	<g>
		<rect x="464.601" y="609.072" style="fill:#CAD6D6;" width="3.977" height="36.944"/>
	</g>
	<g>
		<rect x="510.473" y="609.072" style="fill:#CAD6D6;" width="3.977" height="36.944"/>
	</g>
	<g>
		<polygon style="fill:#CAD6D6;" points="486.291,626.374 480.512,609.072 485.076,609.072 489.522,622.419 493.976,609.072 
			498.56,609.072 492.818,626.374 		"/>
	</g>
	<g>
		<polygon style="fill:#CAD6D6;" points="575.13,646.016 571.232,626.401 545.236,626.222 541.33,646.016 537.748,646.016 
			545.656,609.072 548.732,609.072 546.036,622.525 570.416,622.525 567.747,609.072 570.808,609.072 578.717,646.016 		"/>
	</g>
	<g>
		<rect x="602.397" y="609.072" style="fill:#CAD6D6;" width="3.977" height="36.944"/>
	</g>
	<g>
		<path style="fill:#CAD6D6;" d="M659.581,646.016l-10.562-36.944h15.663v36.944H659.581z M634.475,646.016v-36.944h3.977v36.944
			H634.475z"/>
	</g>
	<g>
		<rect x="698.796" y="588.287" style="fill:#CAD6D6;" width="3.914" height="36.944"/>
	</g>
	<g>
		<polygon style="fill:#CAD6D6;" points="737.401,646.016 737.401,609.072 741.378,609.072 741.378,642.039 767.609,642.039 
			767.609,646.016 		"/>
	</g>
	<g>
		<path style="fill:#CAD6D6;" d="M816.466,646.016l-10.562-36.944h15.663v36.944H816.466z M791.36,646.016v-36.944h3.977v36.944
			H791.36z"/>
	</g>
	<g>
		<polygon style="fill:#CAD6D6;" points="881.671,646.016 877.773,626.401 851.777,626.222 847.871,646.016 844.289,646.016 
			852.198,609.072 855.273,609.072 852.577,622.525 876.958,622.525 874.288,609.072 877.349,609.072 885.258,646.016 		"/>
	</g>
	<g>
		<path style="fill:#CAD6D6;" d="M933.149,646.016l-10.562-36.944h15.663v36.944H933.149z M908.043,646.016v-36.944h3.977v36.944
			H908.043z"/>
	</g>
	<g>
		<path style="fill:#CAD6D6;" d="M980.205,646.016c-4.193,0-7.677-1.445-10.652-4.421c-2.975-2.973-4.419-6.458-4.419-10.652
			v-21.871h3.977v21.871c0,3.039,1.116,5.76,3.225,7.871c2.111,2.109,4.832,3.225,7.869,3.225c3.022,0,5.745-1.106,7.874-3.198
			c2.148-2.112,3.285-4.843,3.285-7.898v-2.021h3.914v2.021c0,4.194-1.445,7.679-4.418,10.652
			C987.884,644.571,984.4,646.016,980.205,646.016z"/>
	</g>
	<g>
		<polygon style="fill:#CAD6D6;" points="1021.141,646.016 1021.141,609.072 1025.119,609.072 1025.119,642.039 1051.35,642.039 
			1051.35,646.016 		"/>
	</g>
	<g>
		<path style="fill:#43484E;" d="M131.254,694.778c-1.215,0-2.2-0.985-2.2-2.2V503.396c0-1.215,0.985-2.2,2.2-2.2
			c1.215,0,2.2,0.985,2.2,2.2v189.183C133.454,693.794,132.469,694.778,131.254,694.778z"/>
	</g>
	<g>
		<path style="fill:#43484E;" d="M1068.369,694.778c-1.215,0-2.2-0.985-2.2-2.2V503.396c0-1.215,0.985-2.2,2.2-2.2
			c1.214,0,2.2,0.985,2.2,2.2v189.183C1070.569,693.794,1069.583,694.778,1068.369,694.778z"/>
	</g>
	<g>
		<path style="fill:#43484E;" d="M717.538,652.785h-32.264c-1.214,0-2.2-0.985-2.2-2.2c0-1.215,0.985-2.2,2.2-2.2h32.264
			c1.214,0,2.2,0.985,2.2,2.2C719.738,651.8,718.753,652.785,717.538,652.785z"/>
	</g>
	<g>
		<path style="fill:#43484E;" d="M453.317,663.287h-34.219c-1.215,0-2.2-0.985-2.2-2.2s0.985-2.2,2.2-2.2h34.219
			c1.215,0,2.2,0.985,2.2,2.2S454.532,663.287,453.317,663.287z"/>
	</g>
	<g>
		<g>
			<path style="fill:#CAD6D6;" d="M728.955,503.124l-2.403,6.771c-0.377,1.063-1.545,1.62-2.608,1.242l-20.919-7.422
				c-1.063-0.377-1.62-1.545-1.242-2.608l2.403-6.771c0.377-1.063,1.545-1.619,2.608-1.242l20.919,7.422
				C728.776,500.893,729.332,502.061,728.955,503.124z"/>
			<path style="fill:#43484E;" d="M724.627,514.188c-0.567,0-1.127-0.097-1.664-0.287l-20.92-7.422
				c-1.252-0.443-2.256-1.349-2.828-2.549c-0.571-1.201-0.642-2.552-0.196-3.805l2.402-6.769c0.705-1.983,2.589-3.313,4.69-3.313
				c0.567,0,1.127,0.097,1.664,0.287l20.918,7.422c2.585,0.917,3.943,3.766,3.026,6.352l-2.403,6.773
				C728.615,512.857,726.73,514.188,724.627,514.188z M704.845,501.249l19.241,6.826l1.807-5.093l-19.242-6.827L704.845,501.249z"/>
		</g>
		<g>
			
				<rect x="710.931" y="477.513" transform="matrix(0.3344 -0.9424 0.9424 0.3344 20.7136 1004.0188)" style="fill:#CAD6D6;" width="20.434" height="19.665"/>
			<path style="fill:#43484E;" d="M726.999,503.196c-0.325,0-0.656-0.054-0.981-0.17l-18.534-6.576
				c-0.733-0.26-1.332-0.8-1.667-1.503c-0.335-0.702-0.377-1.509-0.116-2.242l6.833-19.258c0.541-1.526,2.214-2.327,3.745-1.783
				l18.534,6.576c0.733,0.26,1.332,0.801,1.667,1.503c0.335,0.702,0.377,1.509,0.116,2.242l-6.833,19.258
				C729.336,502.445,728.206,503.196,726.999,503.196z M712.211,491.902l13.005,4.614l4.871-13.729l-13.005-4.614L712.211,491.902z"
				/>
		</g>
		<g>
			<path style="fill:#CAD6D6;" d="M715.298,474.428c0,0,4.596-12.952,23.891-15.612c0,0-7.102,5.844-12.058,19.811L715.298,474.428z
				"/>
			<path style="fill:#43484E;" d="M727.131,481.561c-0.325,0-0.656-0.055-0.981-0.17l-11.832-4.198
				c-1.527-0.541-2.324-2.218-1.783-3.744c0.212-0.598,5.429-14.667,26.254-17.538c1.302-0.176,2.562,0.527,3.088,1.729
				c0.527,1.202,0.19,2.608-0.823,3.441c-0.055,0.046-6.578,5.623-11.158,18.526C729.468,480.81,728.338,481.561,727.131,481.561z
				 M719.489,472.803l5.916,2.099c1.847-4.592,3.89-8.24,5.756-11.036C724.699,466.406,721.205,470.258,719.489,472.803z"/>
		</g>
		<g>
			<g>
				<path style="fill:#EF5555;" d="M788.566,509.063l-1.388,3.913c-0.684,1.928-2.801,2.936-4.729,2.252l-53.967-19.148
					l3.865-10.894l53.966,19.148C788.242,505.018,789.25,507.135,788.566,509.063z"/>
			</g>
			<g>
				<path style="fill:#43484E;" d="M783.687,518.375c-0.756,0-1.504-0.129-2.22-0.383l-53.965-19.148
					c-0.733-0.26-1.333-0.801-1.667-1.503c-0.335-0.702-0.377-1.509-0.116-2.242l3.865-10.894c0.543-1.525,2.213-2.327,3.745-1.783
					l53.965,19.148c3.447,1.223,5.259,5.023,4.036,8.472l-1.389,3.915C789.005,516.599,786.491,518.375,783.687,518.375z
					 M732.228,494.296l51.201,18.168c0.352,0.126,0.818,0,0.984-0.468l1.389-3.915c0.142-0.4-0.069-0.841-0.47-0.983l-51.201-18.167
					L732.228,494.296z"/>
			</g>
		</g>
	</g>
	<g>
		<path style="fill:#43484E;" d="M717.183,519.078H706.23c-0.811,0-1.466-0.657-1.466-1.467c0-0.81,0.656-1.466,1.466-1.466h10.953
			c0.811,0,1.467,0.657,1.467,1.466C718.65,518.421,717.994,519.078,717.183,519.078z"/>
	</g>
	<g>
		<g>
			<path style="fill:#43484E;" d="M694.808,516.909c-0.541,0-1.063-0.301-1.318-0.82l-0.647-1.317
				c-0.357-0.727-0.057-1.605,0.669-1.963c0.733-0.358,1.607-0.057,1.963,0.669l0.647,1.317c0.357,0.727,0.057,1.606-0.669,1.963
				C695.245,516.861,695.025,516.909,694.808,516.909z"/>
		</g>
		<g>
			<path style="fill:#43484E;" d="M690.36,507.848c-0.543,0-1.063-0.301-1.318-0.82l-1.267-2.581
				c-0.357-0.728-0.057-1.606,0.67-1.963c0.727-0.36,1.605-0.057,1.962,0.669l1.268,2.582c0.357,0.728,0.057,1.606-0.67,1.963
				C690.797,507.799,690.576,507.848,690.36,507.848z M685.29,497.521c-0.543,0-1.063-0.301-1.318-0.82l-1.267-2.581
				c-0.357-0.728-0.057-1.606,0.67-1.963c0.729-0.359,1.605-0.057,1.962,0.669l1.267,2.582c0.357,0.728,0.057,1.606-0.67,1.963
				C685.727,497.473,685.506,497.521,685.29,497.521z M680.222,487.194c-0.543,0-1.063-0.301-1.318-0.82l-1.267-2.581
				c-0.357-0.728-0.057-1.606,0.67-1.963c0.73-0.359,1.605-0.057,1.962,0.669l1.267,2.581c0.357,0.728,0.057,1.606-0.67,1.963
				C680.659,487.146,680.438,487.194,680.222,487.194z M675.152,476.868c-0.543,0-1.063-0.301-1.318-0.82l-1.268-2.581
				c-0.357-0.728-0.057-1.606,0.67-1.963c0.728-0.361,1.605-0.057,1.962,0.669l1.267,2.581c0.357,0.728,0.057,1.606-0.67,1.963
				C675.589,476.82,675.368,476.868,675.152,476.868z M670.082,466.541c-0.543,0-1.063-0.301-1.318-0.82l-1.268-2.581
				c-0.357-0.728-0.057-1.606,0.67-1.963c0.727-0.359,1.605-0.057,1.962,0.669l1.267,2.581c0.357,0.728,0.057,1.606-0.67,1.963
				C670.519,466.493,670.298,466.541,670.082,466.541z"/>
		</g>
		<g>
			<path style="fill:#43484E;" d="M665.012,456.215c-0.543,0-1.063-0.302-1.318-0.821l-0.646-1.316
				c-0.357-0.727-0.057-1.605,0.67-1.963c0.727-0.358,1.606-0.054,1.962,0.671l0.646,1.316c0.357,0.727,0.057,1.605-0.67,1.963
				C665.449,456.167,665.229,456.215,665.012,456.215z"/>
		</g>
	</g>
	<g>
		<path style="fill:#FCC20E;" d="M1077.082,551.831c-0.811,0-1.466-0.657-1.466-1.467v-7.577c0-0.81,0.656-1.466,1.466-1.466h5.866
			c0.811,0,1.467,0.657,1.467,1.466c0,0.81-0.656,1.467-1.467,1.467h-4.4v6.11C1078.549,551.174,1077.893,551.831,1077.082,551.831z
			"/>
	</g>
	<g>
		<path style="fill:#FCC20E;" d="M153.886,735.613c-0.81,0-1.467-0.657-1.467-1.466v-7.578c0-0.81,0.657-1.466,1.467-1.466h5.866
			c0.81,0,1.467,0.657,1.467,1.466s-0.657,1.466-1.467,1.466h-4.4v6.111C155.352,734.956,154.696,735.613,153.886,735.613z"/>
	</g>
	<g>
		<path style="fill:#FCC20E;" d="M714.25,567.224c-0.811,0-1.467-0.657-1.467-1.467v-7.578c0-0.81,0.656-1.467,1.467-1.467h5.866
			c0.811,0,1.466,0.657,1.466,1.467c0,0.81-0.656,1.466-1.466,1.466h-4.4v6.111C715.716,566.567,715.061,567.224,714.25,567.224z"/>
	</g>
	<g>
		<path style="fill:#FCC20E;" d="M147.493,529.003h-7.577c-0.81,0-1.467-0.657-1.467-1.467v-5.866c0-0.81,0.657-1.466,1.467-1.466
			s1.467,0.657,1.467,1.466v4.4h6.11c0.81,0,1.467,0.657,1.467,1.466S148.303,529.003,147.493,529.003z"/>
	</g>
	<g>
		<g>
			<path style="fill:#CAD6D6;" d="M182.678,497.958c5.761,0.202,10.595-4.305,10.797-10.066c0.202-5.761-4.305-10.595-10.066-10.797
				c-5.761-0.202-10.595,4.305-10.797,10.066S176.917,497.757,182.678,497.958z M183.223,482.433
				c2.814,0.099,5.014,2.459,4.916,5.273s-2.459,5.014-5.273,4.916c-2.814-0.099-5.014-2.459-4.916-5.273
				C178.048,484.535,180.409,482.334,183.223,482.433z"/>
			<path style="fill:#43484E;" d="M183.051,499.431L183.051,499.431c-0.14,0-0.282-0.002-0.424-0.007
				c-6.56-0.23-11.71-5.754-11.48-12.314c0.232-6.582,5.704-11.701,12.314-11.48c3.178,0.112,6.122,1.454,8.291,3.779
				c2.168,2.326,3.3,5.357,3.189,8.535C194.715,494.385,189.492,499.431,183.051,499.431z M183.037,478.556
				c-4.854,0-8.789,3.802-8.959,8.657c-0.173,4.944,3.708,9.106,8.652,9.28l0.321,0.006c4.854,0,8.789-3.802,8.959-8.657
				c0.084-2.395-0.77-4.679-2.404-6.432c-1.633-1.752-3.852-2.764-6.248-2.848L183.037,478.556z M183.048,494.091l-0.234-0.003
				c-1.752-0.062-3.376-0.802-4.571-2.084c-1.196-1.283-1.82-2.954-1.759-4.707c0.124-3.552,3.004-6.334,6.557-6.334l0.232,0.004
				c1.753,0.062,3.376,0.802,4.572,2.085c1.195,1.283,1.82,2.954,1.759,4.706C189.48,491.309,186.6,494.091,183.048,494.091z
				 M183.041,483.896c-1.964,0-3.557,1.539-3.626,3.503c-0.034,0.97,0.312,1.895,0.972,2.604c0.661,0.71,1.56,1.119,2.529,1.153
				c0.001,0,0.003,0,0.004,0c2.092,0,3.683-1.538,3.751-3.501c0.034-0.97-0.312-1.894-0.973-2.604
				c-0.662-0.71-1.56-1.119-2.529-1.153L183.041,483.896z"/>
		</g>
		<g>
			<path style="fill:#CAD6D6;" d="M153.036,491.076l8.133,0.285c0.478,2.62,1.417,5.083,2.733,7.303l-5.954,5.551
				c-1.317,1.227-1.389,3.29-0.161,4.606l2.073,2.224c1.227,1.316,3.29,1.389,4.606,0.161l5.954-5.551l-0.001,0
				c2.123,1.468,4.515,2.577,7.095,3.237l-0.285,8.133c-0.063,1.799,1.344,3.308,3.143,3.371l3.038,0.106
				c1.799,0.063,3.308-1.344,3.371-3.143l0.285-8.133c2.62-0.478,5.083-1.417,7.304-2.733l-0.001,0l5.551,5.954
				c1.227,1.317,3.29,1.389,4.606,0.161l2.224-2.073c1.317-1.227,1.389-3.29,0.161-4.606l-5.551-5.954
				c1.467-2.123,2.577-4.515,3.237-7.094l8.133,0.285c1.799,0.063,3.308-1.344,3.371-3.143l0.106-3.038
				c0.063-1.799-1.344-3.308-3.143-3.371l-8.133-0.285c-0.478-2.62-1.417-5.083-2.732-7.303l5.954-5.551
				c1.317-1.227,1.389-3.29,0.161-4.606l-2.073-2.224c-1.227-1.316-3.29-1.389-4.606-0.161l-5.955,5.551
				c-2.123-1.467-4.514-2.577-7.094-3.237l0.285-8.133c0.063-1.799-1.344-3.308-3.143-3.371l-3.038-0.106
				c-1.799-0.063-3.308,1.344-3.371,3.143l-0.285,8.133c-2.62,0.478-5.083,1.417-7.303,2.733l-5.551-5.954
				c-1.227-1.316-3.29-1.389-4.606-0.161l-2.224,2.073c-1.317,1.227-1.389,3.29-0.161,4.606l5.551,5.954
				c-1.467,2.123-2.577,4.514-3.237,7.094l-8.133-0.285c-1.799-0.063-3.308,1.344-3.371,3.143l-0.106,3.038
				C149.83,489.503,151.237,491.013,153.036,491.076z M183.564,472.687c8.095,0.284,14.428,7.076,14.145,15.172
				c-0.284,8.096-7.076,14.428-15.172,14.145c-8.095-0.284-14.428-7.076-14.145-15.172
				C168.676,478.736,175.469,472.404,183.564,472.687z"/>
			<path style="fill:#43484E;" d="M183.526,521.971c-0.017,0-0.15-0.002-0.168-0.003l-3.038-0.107
				c-1.261-0.044-2.43-0.577-3.291-1.5c-0.861-0.923-1.31-2.127-1.266-3.388l0.244-6.983c-1.909-0.592-3.727-1.422-5.429-2.478
				l-5.113,4.768c-0.878,0.818-2.022,1.269-3.222,1.269l0,0c-1.307,0-2.566-0.548-3.457-1.502l-2.073-2.225
				c-0.861-0.922-1.31-2.125-1.267-3.387c0.044-1.262,0.577-2.43,1.501-3.291l5.113-4.768c-0.935-1.772-1.635-3.644-2.092-5.589
				l-6.984-0.245c-2.604-0.092-4.648-2.284-4.557-4.889l0.106-3.037c0.09-2.558,2.163-4.561,4.721-4.561
				c0.017,0,0.15,0.002,0.168,0.003l6.984,0.245c0.592-1.908,1.421-3.727,2.478-5.429l-4.767-5.113
				c-1.777-1.905-1.672-4.902,0.233-6.679l2.225-2.074c1.832-1.71,4.97-1.598,6.678,0.235l4.768,5.113
				c1.772-0.934,3.645-1.635,5.589-2.092l0.245-6.984c0.089-2.557,2.163-4.56,4.72-4.56c0.017,0,0.15,0.002,0.167,0.003l3.038,0.106
				c1.262,0.044,2.431,0.577,3.292,1.5c0.861,0.924,1.31,2.127,1.267,3.388l-0.245,6.984c1.908,0.592,3.727,1.421,5.429,2.478
				l5.114-4.767c1.833-1.71,4.97-1.597,6.678,0.233l2.073,2.225c0.861,0.922,1.311,2.125,1.267,3.387
				c-0.044,1.262-0.577,2.43-1.501,3.291l-5.113,4.768c0.934,1.772,1.635,3.644,2.092,5.589l6.984,0.244
				c2.604,0.092,4.648,2.284,4.557,4.889l-0.106,3.038c-0.089,2.558-2.163,4.561-4.721,4.561c-0.017,0-0.15-0.002-0.168-0.003
				l-6.984-0.245c-0.592,1.908-1.422,3.727-2.478,5.429l4.767,5.114c0.861,0.922,1.31,2.125,1.266,3.387
				c-0.044,1.262-0.576,2.43-1.499,3.291l-2.225,2.073c-1.833,1.71-4.97,1.598-6.678-0.233l-4.768-5.114
				c-1.772,0.935-3.645,1.635-5.589,2.092l-0.245,6.984C188.157,519.969,186.083,521.971,183.526,521.971z M170.42,504.189
				c0.291,0,0.581,0.086,0.834,0.261c2.021,1.398,4.25,2.415,6.623,3.022c0.667,0.171,1.126,0.783,1.102,1.472l-0.284,8.133
				c-0.017,0.478,0.153,0.934,0.48,1.285c0.327,0.35,0.77,0.552,1.249,0.569l3.038,0.107l0.064,1.468v-1.466
				c0.97,0,1.755-0.76,1.789-1.73l0.285-8.132c0.024-0.688,0.525-1.268,1.202-1.391c2.409-0.44,4.703-1.298,6.82-2.552
				c0.594-0.352,1.351-0.242,1.82,0.262l5.551,5.955c0.652,0.699,1.831,0.743,2.533,0.088l2.225-2.073
				c0.349-0.326,0.551-0.77,0.569-1.248c0.016-0.478-0.154-0.935-0.48-1.285l-5.551-5.956c-0.47-0.503-0.526-1.267-0.134-1.834
				c1.398-2.022,2.415-4.251,3.023-6.624c0.17-0.667,0.756-1.127,1.472-1.102l8.133,0.285c0.001,0,0.001,0,0.001,0
				c1.034,0,1.819-0.759,1.852-1.729l0.106-3.038c0.035-0.988-0.74-1.82-1.729-1.855l-8.133-0.284
				c-0.688-0.024-1.268-0.525-1.391-1.202c-0.44-2.409-1.298-4.703-2.551-6.819c-0.351-0.593-0.242-1.35,0.261-1.82l5.954-5.552
				c0.351-0.327,0.553-0.77,0.57-1.248c0.016-0.478-0.154-0.934-0.48-1.285l-2.074-2.225c-0.652-0.699-1.83-0.743-2.533-0.088
				l-5.956,5.551c-0.503,0.47-1.266,0.525-1.834,0.134c-2.022-1.398-4.251-2.415-6.623-3.023c-0.667-0.171-1.126-0.783-1.102-1.472
				l0.285-8.133c0.017-0.478-0.154-0.935-0.48-1.285c-0.327-0.351-0.77-0.553-1.249-0.569l-3.038-0.106c0,0-0.002,0-0.003,0
				c-1.033,0-1.818,0.759-1.851,1.729l-0.285,8.133c-0.024,0.688-0.525,1.268-1.202,1.391c-2.409,0.44-4.703,1.298-6.819,2.551
				c-0.593,0.352-1.35,0.241-1.82-0.261l-5.552-5.954c-0.654-0.702-1.834-0.745-2.533-0.09l-2.225,2.073
				c-0.723,0.675-0.762,1.811-0.088,2.534l5.551,5.954c0.47,0.504,0.526,1.268,0.134,1.834c-1.398,2.024-2.415,4.253-3.023,6.624
				c-0.171,0.667-0.78,1.118-1.472,1.102l-8.133-0.285c-0.001,0-0.001,0-0.001,0c-1.034,0-1.819,0.76-1.852,1.729l-0.106,3.037
				c-0.035,0.988,0.74,1.82,1.729,1.855l8.132,0.285c0.688,0.024,1.268,0.525,1.391,1.202c0.44,2.409,1.298,4.703,2.551,6.819
				c0.351,0.593,0.242,1.351-0.261,1.82l-5.954,5.552c-0.351,0.326-0.553,0.77-0.569,1.248c-0.017,0.478,0.154,0.935,0.48,1.285
				l2.073,2.225c0.342,0.367,0.809,0.569,1.312,0.569l0,0c0.455,0,0.888-0.17,1.221-0.481l5.956-5.551
				C169.699,504.322,170.059,504.189,170.42,504.189z M183.06,503.479c-0.19,0-0.382-0.004-0.574-0.01
				c-8.891-0.311-15.87-7.798-15.559-16.689c0.312-8.921,7.657-15.866,16.689-15.559c4.307,0.151,8.297,1.97,11.236,5.122
				c2.938,3.152,4.473,7.26,4.323,11.567C198.869,496.641,191.79,503.479,183.06,503.479z M183.041,474.144
				c-7.142,0-12.933,5.595-13.183,12.739c-0.124,3.524,1.133,6.884,3.537,9.464c2.404,2.579,5.669,4.067,9.193,4.19
				c7.327,0.255,13.398-5.43,13.654-12.73c0.124-3.524-1.133-6.884-3.537-9.464c-2.405-2.579-5.669-4.067-9.194-4.19
				C183.355,474.147,183.198,474.144,183.041,474.144z"/>
		</g>
	</g>
	<g>
		<g>
			<path style="fill:#CAD6D6;" d="M137.522,717.692c-3.461,3.461-9.073,3.461-12.534,0c-3.461-3.461-3.461-9.073,0-12.534
				c3.461-3.461,9.073-3.461,12.534,0C140.983,708.619,140.983,714.23,137.522,717.692z"/>
			<path style="fill:#43484E;" d="M131.254,722.487c-2.955,0-5.733-1.151-7.823-3.24c-4.313-4.313-4.313-11.331,0-15.645
				c2.09-2.089,4.868-3.24,7.823-3.24c2.955,0,5.734,1.151,7.822,3.24c2.09,2.09,3.24,4.868,3.24,7.823
				c0,2.955-1.151,5.734-3.24,7.823C136.988,721.336,134.21,722.487,131.254,722.487z M131.254,704.761
				c-1.78,0-3.453,0.693-4.712,1.951c-2.597,2.599-2.597,6.826,0,9.424c1.259,1.258,2.932,1.951,4.712,1.951
				c1.78,0,3.453-0.692,4.712-1.951c1.259-1.259,1.951-2.932,1.951-4.712c0-1.779-0.693-3.453-1.951-4.712
				C134.708,705.454,133.034,704.761,131.254,704.761z"/>
		</g>
		<g>
			<path style="fill:#43484E;" d="M124.994,719.885c-0.563,0-1.126-0.215-1.555-0.645c-0.859-0.859-0.859-2.252,0-3.111
				l12.521-12.521c0.859-0.859,2.251-0.859,3.111,0c0.859,0.859,0.859,2.252,0,3.111L126.55,719.24
				C126.12,719.67,125.557,719.885,124.994,719.885z"/>
		</g>
	</g>
	<g>
		<g>
			<path style="fill:#CAD6D6;" d="M1062.102,509.663c-3.461-3.461-3.461-9.073,0-12.534c3.461-3.461,9.073-3.461,12.534,0
				c3.461,3.461,3.461,9.073,0,12.534C1071.175,513.124,1065.563,513.124,1062.102,509.663z"/>
			<path style="fill:#43484E;" d="M1068.369,514.458c-2.955,0-5.733-1.151-7.823-3.24c-2.089-2.089-3.241-4.867-3.241-7.823
				c0-2.954,1.152-5.733,3.241-7.823c2.089-2.089,4.868-3.24,7.823-3.24c2.954,0,5.733,1.151,7.822,3.24
				c2.089,2.09,3.241,4.868,3.241,7.823c0,2.955-1.151,5.734-3.241,7.823C1074.102,513.308,1071.324,514.458,1068.369,514.458z
				 M1068.369,496.733c-1.78,0-3.453,0.693-4.712,1.951c-1.259,1.259-1.952,2.932-1.952,4.712c0,1.78,0.693,3.453,1.952,4.712
				c1.259,1.258,2.932,1.951,4.712,1.951c1.78,0,3.453-0.693,4.712-1.951c1.259-1.259,1.952-2.932,1.952-4.712
				c0-1.78-0.693-3.453-1.952-4.712C1071.822,497.426,1070.149,496.733,1068.369,496.733z"/>
		</g>
		<g>
			<path style="fill:#43484E;" d="M1074.629,511.856c-0.563,0-1.126-0.215-1.555-0.645l-12.52-12.521
				c-0.859-0.859-0.859-2.252,0-3.111c0.859-0.859,2.251-0.859,3.111,0l12.52,12.521c0.859,0.859,0.859,2.252,0,3.111
				C1075.755,511.641,1075.192,511.856,1074.629,511.856z"/>
		</g>
	</g>
	<g>
		<g>
			<circle style="fill:#CAD6D6;" cx="862.604" cy="734.903" r="8.863"/>
			<path style="fill:#43484E;" d="M862.605,745.966c-6.101,0-11.063-4.962-11.063-11.063c0-6.1,4.963-11.063,11.063-11.063
				c6.1,0,11.062,4.963,11.062,11.063C873.667,741.003,868.704,745.966,862.605,745.966z M862.605,728.24
				c-3.675,0-6.664,2.989-6.664,6.663s2.989,6.663,6.664,6.663c3.674,0,6.662-2.989,6.662-6.663S866.278,728.24,862.605,728.24z"/>
		</g>
		<g>
			<path style="fill:#43484E;" d="M871.458,737.103h-17.707c-1.214,0-2.2-0.985-2.2-2.2c0-1.215,0.985-2.2,2.2-2.2h17.707
				c1.214,0,2.2,0.985,2.2,2.2C873.658,736.118,872.673,737.103,871.458,737.103z"/>
		</g>
	</g>
	<g>
		<g>
			<path style="fill:#CAD6D6;" d="M421.694,517.523c-3.461-3.461-3.461-9.073,0-12.534c3.461-3.461,9.073-3.461,12.534,0
				c3.461,3.461,3.461,9.073,0,12.534C430.767,520.984,425.155,520.984,421.694,517.523z"/>
			<path style="fill:#43484E;" d="M427.961,522.318c-2.955,0-5.733-1.151-7.822-3.24c-2.09-2.089-3.24-4.867-3.24-7.823
				c0-2.954,1.151-5.733,3.24-7.823c2.089-2.09,4.867-3.24,7.822-3.24c2.956,0,5.734,1.151,7.822,3.24
				c2.09,2.09,3.241,4.868,3.241,7.823c0,2.955-1.151,5.734-3.241,7.823C433.695,521.167,430.917,522.318,427.961,522.318z
				 M427.961,504.592c-1.779,0-3.453,0.693-4.711,1.951c-1.258,1.259-1.951,2.932-1.951,4.712c0,1.78,0.692,3.453,1.951,4.712
				c1.259,1.259,2.932,1.951,4.711,1.951c1.78,0,3.453-0.692,4.712-1.951s1.952-2.932,1.952-4.712c0-1.78-0.693-3.453-1.952-4.712
				C431.414,505.285,429.741,504.592,427.961,504.592z"/>
		</g>
		<g>
			<path style="fill:#43484E;" d="M434.222,519.716c-0.563,0-1.126-0.215-1.555-0.645l-12.521-12.521
				c-0.859-0.859-0.859-2.251,0-3.111c0.859-0.859,2.251-0.859,3.111,0l12.521,12.521c0.859,0.859,0.859,2.251,0,3.111
				C435.348,519.501,434.785,519.716,434.222,519.716z"/>
		</g>
	</g>
	<g>
		<path style="fill:#43484E;" d="M578.717,719.354H334.492c-1.215,0-2.2-0.985-2.2-2.2s0.985-2.2,2.2-2.2h244.225
			c1.214,0,2.2,0.985,2.2,2.2S579.932,719.354,578.717,719.354z"/>
	</g>
	<g>
		<path style="fill:#43484E;" d="M271.467,719.354H150.262c-1.215,0-2.2-0.985-2.2-2.2s0.985-2.2,2.2-2.2h121.205
			c1.215,0,2.2,0.985,2.2,2.2S272.682,719.354,271.467,719.354z"/>
	</g>
	<g>
		<path style="fill:#43484E;" d="M620.99,719.354h-17.842c-1.215,0-2.2-0.985-2.2-2.2s0.985-2.2,2.2-2.2h17.842
			c1.214,0,2.2,0.985,2.2,2.2S622.205,719.354,620.99,719.354z"/>
	</g>
	<g>
		<path style="fill:#43484E;" d="M850.44,719.354h-17.842c-1.214,0-2.2-0.985-2.2-2.2s0.985-2.2,2.2-2.2h17.842
			c1.215,0,2.2,0.985,2.2,2.2S851.654,719.354,850.44,719.354z"/>
	</g>
	<g>
		<path style="fill:#43484E;" d="M880.22,719.354h-8.921c-1.214,0-2.2-0.985-2.2-2.2s0.985-2.2,2.2-2.2h8.921
			c1.214,0,2.2,0.985,2.2,2.2S881.435,719.354,880.22,719.354z"/>
	</g>
	<g>
		<path style="fill:#43484E;" d="M912.504,719.354h-8.922c-1.215,0-2.2-0.985-2.2-2.2s0.985-2.2,2.2-2.2h8.922
			c1.214,0,2.2,0.985,2.2,2.2S913.719,719.354,912.504,719.354z"/>
	</g>
	<g>
		<path style="fill:#43484E;" d="M819.58,719.354H634.101c-1.215,0-2.2-0.985-2.2-2.2s0.985-2.2,2.2-2.2H819.58
			c1.214,0,2.2,0.985,2.2,2.2S820.794,719.354,819.58,719.354z"/>
	</g>
	<g>
		<g>
			<path style="fill:#43484E;" d="M935.744,725.394c-0.563,0-1.126-0.215-1.555-0.644l-12.079-12.08
				c-0.859-0.859-0.859-2.252,0-3.111c0.859-0.859,2.251-0.859,3.111,0l12.079,12.08c0.859,0.859,0.859,2.252,0,3.111
				C936.869,725.179,936.307,725.394,935.744,725.394z"/>
		</g>
		<g>
			<path style="fill:#43484E;" d="M923.665,725.394c-0.563,0-1.126-0.215-1.555-0.644c-0.859-0.859-0.859-2.251,0-3.111
				l12.079-12.08c0.859-0.859,2.251-0.859,3.111,0c0.859,0.859,0.859,2.251,0,3.111l-12.079,12.08
				C924.791,725.179,924.228,725.394,923.665,725.394z"/>
		</g>
	</g>
	<g>
		<path style="fill:#43484E;" d="M270.496,522.086c-0.563,0-1.126-0.215-1.555-0.644l-7.573-7.573c-0.859-0.859-0.859-2.252,0-3.111
			c0.859-0.859,2.251-0.859,3.111,0l6.017,6.017l14.872-14.872c0.859-0.859,2.251-0.859,3.111,0c0.859,0.859,0.859,2.252,0,3.111
			l-16.428,16.427C271.622,521.871,271.059,522.086,270.496,522.086z"/>
	</g>
	<g>
		<path style="fill:#43484E;" d="M294.685,523.259h-7.761c-1.215,0-2.2-0.985-2.2-2.2s0.985-2.2,2.2-2.2h7.761
			c1.215,0,2.2,0.985,2.2,2.2S295.9,523.259,294.685,523.259z"/>
	</g>
	<g>
		<path style="fill:#43484E;" d="M334.493,523.259h-32.377c-1.215,0-2.2-0.985-2.2-2.2s0.985-2.2,2.2-2.2h32.377
			c1.215,0,2.2,0.985,2.2,2.2S335.708,523.259,334.493,523.259z"/>
	</g>
	<g>
		<g>
			<g>
				<polygon style="fill:#EF5555;" points="321.068,738.968 283.164,738.968 294.882,687.7 309.35,687.7 				"/>
			</g>
			<g>
				<path style="fill:#43484E;" d="M321.097,741.901c-0.011,0-0.019,0-0.029,0h-37.904c-0.893,0-1.737-0.407-2.294-1.105
					c-0.556-0.698-0.765-1.611-0.566-2.482l11.718-51.267c0.305-1.333,1.491-2.279,2.859-2.279h14.468
					c1.368,0,2.554,0.946,2.859,2.279l11.627,50.87c0.125,0.327,0.194,0.681,0.194,1.051
					C324.03,740.587,322.717,741.901,321.097,741.901z M286.843,736.034h30.546l-10.377-45.401h-9.792L286.843,736.034z"/>
			</g>
		</g>
		<g>
			<g>
				<polygon style="fill:#FFFFFF;" points="287.532,719.854 316.699,719.854 313.096,704.089 291.136,704.089 				"/>
			</g>
			<g>
				<path style="fill:#43484E;" d="M316.699,722.787h-29.167c-0.893,0-1.737-0.407-2.294-1.105
					c-0.556-0.698-0.765-1.611-0.566-2.482l3.603-15.765c0.305-1.333,1.491-2.279,2.859-2.279h21.96
					c1.368,0,2.554,0.946,2.859,2.279l3.603,15.765c0.199,0.871-0.009,1.784-0.566,2.482
					C318.436,722.38,317.592,722.787,316.699,722.787z M291.212,716.921h21.808l-2.262-9.899h-17.284L291.212,716.921z"/>
			</g>
		</g>
		<g>
			<rect x="277.368" y="738.968" style="fill:#EF5555;" width="49.495" height="8.702"/>
			<path style="fill:#43484E;" d="M326.864,750.602h-49.495c-1.62,0-2.933-1.313-2.933-2.933v-8.702c0-1.62,1.313-2.933,2.933-2.933
				h49.495c1.62,0,2.933,1.313,2.933,2.933v8.702C329.797,749.289,328.484,750.602,326.864,750.602z M280.302,744.736h43.629v-2.836
				h-43.629V744.736z"/>
		</g>
	</g>
	<g>
		<rect x="341.881" y="478.735" style="fill:#90D5F5;" width="17.22" height="17.22"/>
	</g>
	<g>
		<rect x="882.299" y="747.669" style="fill:#FCC20E;" width="17.22" height="17.22"/>
	</g>
	<g>
		<rect x="227.795" y="730.357" style="fill:#EF5555;" width="17.22" height="17.22"/>
	</g>
	<g>
		<path style="fill:#43484E;" d="M841.582,737.103H376.774c-1.215,0-2.2-0.985-2.2-2.2c0-1.215,0.985-2.2,2.2-2.2h464.808
			c1.215,0,2.2,0.985,2.2,2.2C843.782,736.118,842.797,737.103,841.582,737.103z"/>
	</g>
	<g>
		<g>
			<path style="fill:#43484E;" d="M829.085,514.593c-0.563,0-1.126-0.215-1.555-0.645l-12.079-12.079
				c-0.859-0.858-0.859-2.252,0-3.111c0.859-0.859,2.251-0.859,3.111,0l12.079,12.079c0.859,0.859,0.859,2.252,0,3.111
				C830.211,514.378,829.648,514.593,829.085,514.593z"/>
		</g>
		<g>
			<path style="fill:#43484E;" d="M817.006,514.593c-0.563,0-1.126-0.215-1.555-0.645c-0.859-0.859-0.859-2.252,0-3.111
				l12.079-12.079c0.859-0.859,2.251-0.859,3.111,0c0.859,0.859,0.859,2.252,0,3.111l-12.079,12.079
				C818.132,514.378,817.569,514.593,817.006,514.593z"/>
		</g>
	</g>
	<g>
		<path style="fill:#43484E;" d="M883.875,502.514h-42.541c-1.214,0-2.2-0.985-2.2-2.2s0.985-2.2,2.2-2.2h42.541
			c1.214,0,2.2,0.985,2.2,2.2S885.09,502.514,883.875,502.514z"/>
	</g>
	<g>
		<path style="fill:#43484E;" d="M865.409,514.593h-24.075c-1.214,0-2.2-0.985-2.2-2.2c0-1.215,0.985-2.2,2.2-2.2h24.075
			c1.214,0,2.2,0.985,2.2,2.2C867.609,513.608,866.623,514.593,865.409,514.593z"/>
	</g>
	<g>
		<path style="fill:#FCC20E;" d="M985.881,731.634l-8.931-8.931l-12.2,3.269l-3.269,12.2l8.931,8.931l12.2-3.269L985.881,731.634z
			 M970.079,738.505c-1.989-1.989-1.989-5.214,0-7.203c1.989-1.989,5.214-1.989,7.203,0c1.989,1.989,1.989,5.214,0,7.203
			C975.293,740.494,972.068,740.494,970.079,738.505z"/>
		<path style="fill:#43484E;" d="M970.412,748.57c-0.384,0-0.758-0.151-1.037-0.43l-8.931-8.931c-0.371-0.37-0.516-0.91-0.38-1.417
			l3.268-12.201c0.136-0.506,0.531-0.902,1.037-1.037l12.201-3.269c0.51-0.137,1.047,0.01,1.416,0.38l8.931,8.932
			c0.371,0.37,0.516,0.91,0.38,1.416l-3.268,12.2c-0.136,0.506-0.531,0.902-1.037,1.037l-12.201,3.269
			C970.666,748.553,970.538,748.57,970.412,748.57z M963.117,737.734l7.734,7.734l10.565-2.831l2.83-10.564l-7.734-7.734
			l-10.565,2.831L963.117,737.734z M973.68,741.463c-1.752,0-3.4-0.683-4.637-1.922c-1.239-1.239-1.922-2.886-1.922-4.638
			c0-1.752,0.683-3.4,1.922-4.639c1.237-1.239,2.886-1.921,4.637-1.921c1.753,0,3.4,0.682,4.639,1.921
			c1.239,1.239,1.922,2.887,1.922,4.639c0,1.752-0.683,3.399-1.922,4.638C977.08,740.781,975.433,741.463,973.68,741.463z
			 M973.68,731.276c-0.968,0-1.879,0.377-2.564,1.062s-1.063,1.596-1.063,2.565c0,0.969,0.378,1.879,1.063,2.564
			c1.369,1.372,3.759,1.369,5.129,0c0.685-0.685,1.063-1.595,1.063-2.564c0-0.969-0.378-1.88-1.063-2.565
			C975.561,731.653,974.65,731.276,973.68,731.276z"/>
	</g>
	<g>
		<g>
			<g>
				<path style="fill:#EF5555;" d="M544.063,467.689h-12.631l-6.315,10.939l6.315,10.938h12.631l6.315-10.938L544.063,467.689z
					 M537.748,483.721c-2.813,0-5.094-2.28-5.094-5.094c0-2.813,2.281-5.094,5.094-5.094c2.813,0,5.093,2.28,5.093,5.094
					C542.841,481.44,540.561,483.721,537.748,483.721z"/>
			</g>
		</g>
		<g>
			<path style="fill:#43484E;" d="M544.063,491.032h-12.63c-0.524,0-1.008-0.279-1.27-0.733l-6.316-10.938
				c-0.262-0.454-0.262-1.012,0-1.466l6.316-10.938c0.262-0.454,0.746-0.733,1.27-0.733h12.63c0.524,0,1.008,0.279,1.27,0.733
				l6.314,10.938c0.262,0.454,0.262,1.013,0,1.466l-6.314,10.938C545.072,490.753,544.588,491.032,544.063,491.032z
				 M532.279,488.099h10.937l5.468-9.472l-5.468-9.472h-10.937l-5.469,9.472L532.279,488.099z M537.747,485.187
				c-3.616,0-6.559-2.943-6.559-6.56c0-3.617,2.943-6.56,6.559-6.56c3.618,0,6.561,2.943,6.561,6.56
				C544.308,482.244,541.365,485.187,537.747,485.187z M537.747,475c-1.999,0-3.626,1.627-3.626,3.627s1.627,3.627,3.626,3.627
				c2.001,0,3.628-1.627,3.628-3.627S539.748,475,537.747,475z"/>
		</g>
	</g>
	<g>
		<path style="fill:#43484E;" d="M917.474,758.479h-4.925c-1.215,0-2.2-0.985-2.2-2.2s0.985-2.2,2.2-2.2h4.925
			c1.214,0,2.2,0.985,2.2,2.2S918.688,758.479,917.474,758.479z"/>
	</g>
	<g>
		<path style="fill:#43484E;" d="M928.473,758.479h-4.925c-1.214,0-2.2-0.985-2.2-2.2s0.985-2.2,2.2-2.2h4.925
			c1.214,0,2.2,0.985,2.2,2.2S929.687,758.479,928.473,758.479z"/>
	</g>
	<g>
		<path style="fill:#43484E;" d="M958.939,758.479h-24.393c-1.215,0-2.2-0.985-2.2-2.2s0.985-2.2,2.2-2.2h24.393
			c1.214,0,2.2,0.985,2.2,2.2S960.154,758.479,958.939,758.479z"/>
	</g>
</g>
</svg>
